<?xml version="1.0" encoding="UTF-8"?>
<svg id="Ebene_1" xmlns="http://www.w3.org/2000/svg" version="1.1" viewBox="0 0 820.59 343.7">
  <!-- Generator: Adobe Illustrator 30.3.0, SVG Export Plug-In . SVG Version: 2.1.3 Build 182)  -->
  <defs>
    <style>
      .st0 {
        fill: #fff;
      }
    </style>
  </defs>
  <g>
    <path d="M270.89,0h.3c.5.2,1,.3,1.5.5,3,1.4,6,2.9,9,4.3,4,1.9,7.9,3.8,11.9,5.7.8.4,1.3,1,1.5,1.8,0,.1.1.2.1.2v.9c-.3,1-.8,1.9-1.7,2.3-.6.3-1.2.4-1.8.5-.8.2-1.6.3-2.3.5v29.8c0,.2.1.3.3.4,1.4.6,2.7,1.3,4.1,2,.8.4,1.2,1,1.5,1.8,0,.1.1.2.1.2v1h-.1c-.4,1.5-1.4,2.3-2.8,2.6-3.9.8-7.8,1.5-11.7,2.3-.7.1-1.4.1-2-.2-1.3-.6-2.7-1.3-4-1.9-1-.5-2.1-1-3.1-1.5-.1.1-.1.2-.2.3-.6,1.4-1.3,2.8-1.9,4.1-.8,1.7-2.6,2.4-4.2,1.6-4.7-2.3-9.4-4.5-14-6.8-.5-.2-1-.5-1.6-.8v2.4c0,.2.1.4.3.5,1.4.7,2.8,1.3,4.2,2,1,.5,1.7,1.7,1.5,2.8-.2,1.4-1.2,2.5-2.6,2.8-3.8.8-7.7,1.5-11.5,2.3-1,.2-1.9.2-2.8-.2-2.2-1.1-4.4-2.1-6.6-3.2-.6-.3-1.2-.6-1.7-.8,0,.1-.1.1-.1.1-2.1,4.2-5.4,7-9.7,8.6-3.6,1.4-7.4,1.9-11.3,1.8-2.1,0-4.1-.4-5.9-1.3-.7-.3-1.3-.8-2-1.1-3.4-1.6-6.8-3.2-10.2-4.8-.1-.1-.2-.1-.4-.2v8c0,1.8-1,3.1-2.8,3.4-3.6.7-7.2,1.4-10.8,2.1-6.3,1.2-12.6,2.5-19,3.7-.9.2-1.8.4-2.8.6h-.9c-.5-.2-1-.4-1.5-.7-5-2.4-10.1-4.9-15.1-7.3-1.7-.8-3.5-1.7-5.3-2.5-.7-.3-1.2-.9-1.5-1.7,0-.1-.1-.2-.1-.4v-1.1c.1-.4.3-.8.4-1.2,3.3-6.7,6.5-13.4,9.8-20.1.3-.6.5-1.1.8-1.7-.1-.1-.2-.1-.4-.2-2.3-.9-4.6-1.8-6.9-2.7-1.3-.5-2-1.5-2-2.9v-9.2c0-1.7,1.1-3,2.8-3.4,3-.6,6.1-1.2,9.1-1.8,7-1.4,14-2.7,21-4.1.8-.2,1.5-.1,2.3.3.5.3,1.1.5,1.6.7.4-1.2,1.3-2,2.5-2.2,1.1-.2,2.2-.4,3.3-.7,6.2-1.2,12.4-2.4,18.5-3.6,1.1-.2,2.1-.2,3.1.4.5.3,1.1.5,1.6.8.4-1.6,1.4-2.4,2.9-2.7,3.8-.7,7.5-1.4,11.3-2.2.9-.2,1.7-.1,2.4.3.3.2.6.3.9.4.6-1.2,1.7-1.8,2.9-2,.8-.1,1.5-.3,2.3-.4,4.6-.9,9.3-1.8,13.9-2.7.9-.2,1.7-.1,2.5.3,5.4,2.6,10.8,5.2,16.3,7.8.7.3,1.3.6,2,1,.1-.1.1-.2.1-.3,1.3-2.7,2.6-5.5,3.9-8.2.6-1.4,1.3-2.8,2-4.2.5-1.1,1.3-1.9,2.5-2.1,1-.2,2-.4,3-.6,1.1.3,2.2,0,3.3-.2Z"/>
    <g>
      <path class="st0" d="M166.19,24l-19.7,40.6,18.2-3.5v-8.1c0-.6.3-1.1,1-1.2.6-.1,1,.2,1,.8v8.8c0,.6-.4,1.1-1,1.2l-32.3,6.3c-.5.1-.9-.1-.9-.7,0-.2.1-.4.2-.7l19.8-40.7-16.3,3.2v8.6c0,.6-.3,1.1-1,1.2-.6.1-1-.2-1-.8v-9.3c0-.6.4-1.1,1-1.2l30.4-5.9c.5-.1.9.1.9.7,0,0-.1.3-.3.7Z"/>
      <path class="st0" d="M208.09,15.8v24.9c0,8.2-4.1,15.1-14.1,17.1-11,2.1-17.5-.8-17.5-11.6v-24.3l-4.7.9c-.6.1-1-.1-1-.7,0-.5.4-.9,1-1.1l22.4-4.4c.6-.1,1,.1,1,.7s-.4.9-1,1.1l-4.9.9v24.4c0,8.2,2.2,12.5,7.6,11.5,4.9-.9,9-6.5,9-14v-25.1l-4.9.9c-.6.1-1-.1-1-.7,0-.5.4-.9,1-1.1l11.7-2.3c.6-.1,1,.1,1,.7s-.4.9-1,1.1l-4.6,1.1Z"/>
      <path class="st0" d="M257.29,43.8c0-.5.4-.9,1-1.1l4.8-.9V8.8l-17.6,37.6c-.2.4-.4.6-.7.7-.4.1-.6,0-.9-.3l-18.4-30.1v32.5l5-1c.6-.1,1,.1,1,.7s-.4.9-1,1.1l-12,2.3c-.6.1-1-.1-1-.7s.4-.9,1-1.1l4.9-.9V12.9l-4.9.9c-.6.1-1-.1-1-.7s.4-.9,1-1.1l16.6-3.2c.7-.1,1.1-.1,1.4.4l13.9,22.6,13-27.8c.3-.5.6-.9,1.1-1l5.7-1.1c.6-.1,1,.1,1,.7s-.4.9-1,1.1l-4.9.9v36.7l4.9-.9c.6-.1,1,.1,1,.7s-.4.9-1,1.1l-11.8,2.3c-.7.1-1.1-.1-1.1-.7Z"/>
    </g>
  </g>
  <g>
    <g>
      <path d="M76.19,323.3c-11.6-6.5-23.1-14.5-34.3-23.6-11.3-9.3-20.4-18.7-27.6-28.9-6.8-9.6-10.9-20.6-12.2-32.5-1.8-17.1,1.9-34,11-50.3,9.1-16.3,22.2-28.3,39-35.7,1.5-.7,2.2-1.7,2.3-3.3.3-6.4.6-12.8.9-19.3.2-5.3.5-10.5.7-15.8.2-5,.4-9.9.6-14.9.1-2.6.2-5.1.3-7.7v-.6c0-.4,0-.8.1-1.1.4-1.7.3-4.1-2.7-5.9-.6-.4-1.2-.7-1.8-1.1-1.4-.8-2.8-1.6-4.1-2.5-5.6-3.6-9-7.5-10.8-12.4-1.1-3-1.2-6.3-1.3-9.7v-.4c0-1.1-.1-2.2-.1-3.3,1.5-.2,2.9-.4,4.3-.5l.1.1c2.5,3.3,5.3,5.3,8.6,6.3,1.1.3,2.3.5,3.5.5,1.9,0,3.6-.4,5.1-.7,5.4-1.3,10.8-2.6,16.1-3.9,5.8-1.4,11.6-2.8,17.5-4.2,1.7-.4,3.4-.6,5-.7,0,0,.2.1.3.1,3.8,3.2,7.6,6.4,11.4,9.6,7.4,6.3,15,12.8,22.6,19,1.6,1.4,2.4,2.8,2.7,5.1.3,2.2.7,4.3,1.1,6.5.1.4.1.8.2,1.1-.9.3-1.8.5-2.6.6-2.3.3-3.8,1.6-4.5,3.9-.2.6-.4,1.2-.6,1.8-.1.3-.2.7-.4,1.1l-1.2,3.5,3.5-.9c1.4-.3,2.7-.7,4.1-1,2.9-.7,5.6-1.5,8.4-2.1,17.1-4,35.3-8.2,53.7-12.3,3.9-.9,7.9-1.7,11.7-2.5,2.3-.5,4.6-.9,6.8-1.4.2,0,.4-.1.6-.1s.3,0,.5.2c2.8,2.3,5.6,4.5,8.4,6.7l3.8,3c.3.3.7.5,1,.8l1.8,1.5,1.6-1.5,1.4-1.3-1.2-1.5-8.5-9.8c.8-.2,1.6-.3,2.4-.4l5.9-1c9.2-1.6,18.4-3.2,27.6-4.8,4.4-.8,9-1.5,14.1-2.2,2.1-.3,2.8-1.6,3.1-2.6,1.8-5.4,6.8-9,12.5-9h.4c2.4.1,4.7.9,6.8,2.5.5.4,1,.7,1.4,1.1,1.2.8,2.3,1.6,3.3,2.5s2.1,1.3,3.4,1.3c.3,0,.7,0,1.1-.1,1.9-.3,3.7-.6,5.6-.9,4.2-.7,8.5-1.4,12.8-1.7,1.5-.1,2.9-.2,4.3-.2,8,0,14.9,2,21.1,6.1.1.1.2.3.3.4.1.2.3.5.4.7l1.1,1.6,2.9-1.8.1-.9c0-.3.1-.6.1-.9.1-.6.2-1.2.3-1.8.7-3.1,2.6-5.2,5.6-7.6.1,0,7.6-.6,7.6-.6,6.8-.6,13.9-1.2,20.8-1.7,10.4-.8,19.7-1.4,28.5-1.9,2.2-.1,4.3-.3,6.5-.4,5.8-.4,11.8-.8,17.7-.8h7c4.2,0,8.5-.2,12.6-.3,2.2-.1,4.5-.2,6.7-.2,4.7-.1,9.5-.3,14.1-.5,3.4-.1,6.9-.3,10.3-.4h.6c2.6,0,5.4.6,8.2,1.7.6.3,1.3.7,1.9,1.1.3.2.7.5,1,.7l1.2.8,1.1-.9c.5-.4,1-.9,1.5-1.3,1.1-1,2.1-1.9,3.2-2.6,1.8-1.3,3.8-1.9,6.1-1.9h.1c5.4.1,10.9.1,16.3.1,7.5,0,15.2,0,22.8.2,9.7.2,19.6.6,29.1,1.1l5.2.2c6.8.3,13.5.7,20.3,1.2,4.9.3,10,.7,15,1.2.2,0,.7.3,1.2.7,3.9,3.3,7.8,6.5,11.6,9.8l4,3.4c.2.1.3.3.6.4l3.1,2.4.7-5.7c.2-1.6.4-3.1.6-4.7l.1-1.2c.7-5.7,1.4-11.7,2-17.5.2-1.4.1-2.8-.3-4.1-.3-1.2-1.1-2.5-2.1-3.3-2.8-2.3-4.9-4.4-5.6-7.3-1-4.5,1.5-8.7,6.2-10.4,1.4-.5,2.4-.7,3.2-.7.9,0,2,.2,3.2,1.7,1.3,1.7,3,2.6,5.1,2.6.9,0,1.8-.1,3-.4,7.8-2,15.4-3.8,23-5.5,2.5-.5,4.6-.8,6.6-.8s3.9.3,5.6.8c1.6.5,2.8,1.1,3.6,1.8,11.5,9.5,22.6,18.9,31.1,26.1,2.6,2.2,4,4.4,4.5,6.9.2,1.1,1,1.9,1.6,2.3.9.7,1.8,1.5,2.8,2.2,1.7,1.4,3.5,2.8,5.1,4.2.8.7,1.5,1.7,2.2,2.7.4.5.7,1,1.1,1.5.1.1.2.2.2.3.3.4.7,1,1.3,1.4,13.8,9.6,25.5,21.3,34.1,30.3,4.1,4.3,6.6,9.1,7.6,14.3,1.2,6.5-.2,12.5-4.3,18.3-.8,1.1-1.6,2.1-2.6,3.1-.4.5-.9,1-1.3,1.6l-1.1,1.4,1.2,1.3c7.7,8.1,14.5,16.7,20.3,25.6,5.2,8,9,15.4,11.7,22.8-.8-.7-1.7-1.5-2.5-2.2-4.6-4.1-9.2-8.2-13.8-12.2-2.2-1.9-4.8-3.4-8.6-4.9l-5.7-2.3,3.3,5.2c.6,1,1.2,1.9,1.8,2.9,1.2,1.9,2.4,3.8,3.6,5.7,7,11.6,11.7,21.8,14.7,32,4.8,16.2,2.6,32.1-6.4,47.3-12.3,20.7-29.8,35.2-52.1,43.1-8.1,2.9-16.8,4.3-25.8,4.3-1.8,0-3.6-.1-5.5-.2-14.3-.9-28.5-5.4-43.3-13.9-16.2-9.2-30.9-21.5-45.2-37.7-4.7-5.3-10-11.8-13.7-19.6-4.9-10.1-7-21-6.5-32.2v-5.8h-10.2c-10.3.1-20.7.3-31,.4-.8,0-1.8,0-2.8.1,1-.7,10-7.2,10-7.2,1.5-1.1,2.2-2.4,2.3-4.2.4-7.6-1.3-13.9-5.3-19.4-.5-.6-1-1.3-1.5-1.9h10l-1.3-2.8c-1.1-2.5-1.6-4.9-1.4-7.4l.2-2c.5-6,.9-12.1,1.5-18.2l.4-3.6c1.4-13.1,2.8-26.7,4.4-40,1.1-9.4,2.4-17.8,6.2-25.9l1.3-2.7-33.1-1.3,1.1,2.8c1.7,4.6,2.2,7.8,1.7,12.1-.8,6.4-1.5,12.7-2.2,19.1-.3,3.1-1.1,10.1-1.2,10.5-.7-1.9-1.3-3.8-2-5.8-2.1-6-4.2-12.2-6.2-18.4-1.4-4.5-2.1-8.8-2-12.8,0-1.2.2-2.4.4-3.6.1-.6.2-1.2.3-1.9l.3-2.1-2.4-.2h-.8c-10.8-.1-21.6-.1-32.4-.2-4.2,0-6.2,3.3-6.9,4.4-1.6,2.6-1.6,5.3,0,7.9,1.2,2.1,2.9,2.5,4,2.5,1,0,1.9-.3,3-.9l2.5-1.5v.8c-.1,5.9-.4,11.6-.9,16.9-.6,6.8-1.3,13.6-1.9,20.3-.3,3.4-.7,6.8-1,10.3-.9,9.1-1.9,18.9-4.1,28.3-.2.8-.3,1.8,0,2.7,1.8,4.5,3.3,8.3,4.8,11.8.5,1.2,2,2,3.2,2,2.5-.1,5-.1,7.4-.2,1.8-.1,3.5-.1,5.3-.2h9.7l-2-3.1c-2.8-4.2-3.5-6.2-3.7-9.6-.1-3.5-.1-6.7.1-9.6.5-6.9,1.1-13.9,1.7-20.7l.4-5c.1-1.2.2-2.3.3-3.5.3.8.6,1.6.9,2.3,2.8,7.5,5.7,15.2,8.4,22.8,2.8,7.8,3.1,13.9.9,19.8l-.8,2.3c-20.9,14.8-41.9,29.5-62.8,44.3l-1-2.1-38.4,5,16,13.5c-.9.6-1.8,1.2-2.6,1.8-2.4,1.7-4.9,3.4-7.3,5.3-4,3.3-5.6,7.5-4.7,12.2.5,2.2,1.2,4.4,1.9,6.2.5,1.4,1.1,2.9,1.6,4.3.3.9.7,1.8,1,2.7h-.5.1-.2c-1.4.2-2.9.2-4.3.2-10.6,0-19.7-4.5-27.2-8.9-11.5-6.7-21.5-15.1-29-21.7-8.2-7.2-16.7-15.5-25.8-25.3l-.8-.8-1.2-1.2-3.2,1.2.8,3.9c.3,1.7.7,3.4,1,5.2.8,3.6,2.5,6.7,4.3,9.4,1.2,1.8,2.3,3.6,3.4,5.6.1.1.1.2.2.3-1.5.4-3,.8-4.5,1.2-6.3,1.6-12.7,3.1-19,4.7-14.3,3.5-29.1,7.2-43.6,11.1-12.3,3.3-24.6,7.1-36.5,10.8-3.2,1-6.5,2-9.7,3-22,6.8-45.1,15-74.8,26.6-8.4,3.3-16.9,6.8-25.2,10.2l-6.8,2.8c-.1,0-.1.1-.2.1l-.1-.1c-6.6-5.7-13.3-11.3-20-17l-4.3-3.7c-.2-.2-.4-.3-.7-.6h-.6s-3.2-2.4-3.2-2.4v5.8c0,1.3-.1,2.6.1,3.8.3,2.6.8,5.2,1.4,7.7.7,3,2.2,4.3,4.4,6.1l.3.3,9,6.5-.2.1c-.3.1-.5.2-.5.2-.8.3-2.5,1.1-3.4,1.5-14.4,6.9-33.4,16-52.4,25.2-.2,0-.4-.1-.4-.1ZM57.49,155.4c-.9.4-1.7.7-2.6,1.1-2.6,1.1-5.3,2.3-7.9,3.6-19.3,10.5-32.4,27-38.9,49.1-4.2,14.5-4.2,28.4.1,41.6,5.4,16.2,15.9,28.8,32.1,38.4.8.5,1.6.7,2.4.7.7,0,1.4-.2,2.2-.6,10.3-5,20.7-10,31-15l6.9-3.3c.5-.2,1-.5,1.5-.7l4.1-1.9-3-2c-2.5-1.6-4.2-4-5.1-7.2-.8-2.9-1.6-6-1.7-8.9-.2-4.9,0-9.8.2-14.7l.1-1.5c.3-9.3.7-18.5,1.1-27.8.2-4.4.6-15.3.6-15.3.2-5.3.4-10.7.6-16.1h5.6c7.7.3,14.1,1.8,19.6,4.6,4.7,2.4,7.9,5.5,9.6,9.3.5,1.2.8,2.7.7,4-.1,1.7-1.3,3-3.7,4.3-1,.6-2.2,1-3.4,1.5-.6.2-1.2.5-1.8.7l-3.1,1.3,2.6,2.1c2.6,2.2,5.7,3.3,9.2,3.3.8,0,1.6-.1,2.4-.2v4.6c0,1.6,0,3.1-.1,4.7-.1,4.3-.1,8.7-.3,13-.5,10-2.3,18.4-5.5,25.7-.2.3-.4,1.2.3,2.2l.9,1.3,36.7-14.8-1.9-2.1c-.2-.3-.5-.5-.7-.8.6.5,1.3,1,2,1.4.5.3,1.3.7,2.3.7.5,0,1-.1,1.5-.3,4.5-1.7,9.1-3.4,13.7-5.1l6-2.2c.3-.1.6-.3.9-.4l.4-.2,3.7-1.8-3.7-1.8c-1.9-.9-2.6-2.5-3-4.7-.9-4-.9-8.4-.1-13.1,1.7-9.8,3.5-19.8,5.3-29.4l1.3-7.2c4.6-2,9.6-3.5,15.3-4.6.3,1.3.7,2.6,1,3.9.8,3.2,1.7,6.6,2.4,9.8l.7,3.3c1.4,6.4,2.9,13.1,3.9,19.6.9,5.5.3,9.8-1.7,13.6l-2.3,4.4,40.7-13-3.7-2.1c1.1.6,2.4,1,3.8,1.4.4.1.8.1,1.2.1,1.1,0,2.1-.3,3.1-.6.4-.1.8-.2,1.2-.3.7-.1,1.3-.3,1.9-.5l.7-.2,9.6-2.8-1.6-2.3c-2.1-3-3.1-6.5-3-11.4.1-6,.5-12.1.9-18.1v-.5c.3-4.4.8-8.9,1.2-13.3l.2-1.5c0-.2.1-.3.1-.5,2.8-.9,5.7-1.8,8.5-2.6l.8-.2c.5,2.4,1,4.9,1.5,7.3,1.2,5.8,2.4,11.6,3.7,17.4.9,4.3,1.6,8.2.8,12-.3,1.7-.9,3.5-1.4,5.1-.2.8-.5,1.6-.7,2.4l-1,3.4,34.3-8.9-1.3-2.3c-.2-.3-.3-.6-.5-.9.3.5.7.9,1.1,1.4.7.7,1.8,1.2,2.8,1.2.2,0,.4,0,.6-.1,4.9-1.1,9.9-2.3,14.7-3.5l5.8-1.4-.8-2.1c-.3-.8-.6-1.6-.9-2.4-.7-1.7-1.3-3.2-1.7-4.8-2-6.8-2.8-14.4-2.8-24.4,0-4.1.1-8.3.1-12.6h.1c.7.4,1.5.7,2.2,1,1.4.7,2.8,1.3,3.9,2.1,2.5,1.8,5,3.9,7.4,6.2,6.5,6.3,12.1,13.5,17.2,20.3,7,9.5,14.9,19.5,24.6,28.2,6.4,5.7,14.2,12.1,24.1,16,4.8,1.9,9.2,2.8,13.4,2.8,3.4,0,6.6-.6,9.8-1.8,4.9-1.9,9.1-5,12.3-9.3l1.4-1.9-2.1-1.1c-.2-.1-.6-.4-1.2-.4h-.1c-.3,0-.6.1-.9.1-2.1.5-4.2.7-6.2.7-4.6,0-9.2-1.1-14.2-3.3-9.2-4.1-17.3-10.4-24.8-19.3-1.7-2-3.5-4.1-5.2-6.2.4.3,1.1.7,1.8.7h.4c2.1-.3,4.2-.7,6.5-1.1l6.4-1.1-3.5-2.8c-2.3-1.8-3.7-3.9-4-6.3-.4-3.5-.9-7.6-.6-11.7.6-10.3,1.3-20.7,2.1-30.8l1.7-.3,21.4-3.8-.4,4.9c-.9,9.6-1.7,19.2-2.5,28.8-.3,3.4-.9,7.8-2.9,11.8-.7,1.3-1.4,2.5-2.2,3.8-.4.6-.8,1.2-1.1,1.8l-2.2,3.6,43.2-5.9-2.8-2.5c.7.5,1.4,1,2.1,1.5.9.6,2.1.9,3,.9h.4c3-.3,6-.6,8.9-.9l3.1-.3,8.9-.9-1-2.5c-.2-.4-.3-.8-.5-1.1-.3-.7-.6-1.3-.8-2-1-3.4-1.2-7.2-.6-11.3,1-6.5,2.2-13.1,3.3-19.5.5-3,1.1-5.9,1.6-8.9.8-.1,1.5-.3,2.3-.4,1.1-.2,2.2-.4,3.3-.5,1.5-.2,3-.3,4.5-.4h.2c.3,2.4.6,4.7.9,7.1.9,6.6,1.8,13.4,2.5,20.1.6,5.1,1.1,10.3-2.3,14.8l-2.6,3.5,36.4-2.3-.3-2.1v-.1c0-.2,0-.6-.3-1-2.4-4.8-4.2-10.2-5.7-16.4-2.5-11.1-5.5-24.2-8.1-37.5-1.9-9.7-3.5-19.6-5-29.1l-.2-1.3c-.4-2.3-.3-4.8-.1-7,0-.2,0-.3.1-.3h.4c.5.1,1.1.3,1.8.5.4.1.7.2,1.1.3l3.3,1-.8-3.4c-.6-2.4-2.3-4.3-4.5-5.1-1.7-.6-4-1.3-6.3-1.3h-.2c-8.4.2-16.9.5-25.1.8l-2.2.1c-2.2.1-4.4.2-6.6.4-1.1.1-2.2.2-3.3.2l-5.3-.1,3.4,3.2c1.9,1.8,3,3.9,3.6,6.8,1.2,6,.1,11.9-.9,16.4-4,17.5-8,35-12,52.4-.2,1.1-.5,2.1-.7,3.2-1,4.7-2,9.2-3.9,13.5-.4,1-.3,2-.1,2.7,0,.2.1.3.1.5-.6-1.8-.9-3.8-.8-6.1.2-8.7.6-17.2,1.2-25.1,1-14,2.2-28.2,3.3-41.9l.8-9.9c.2-2.7.5-5.4,1.9-7.9.5-.8.9-1.2,1.5-1.2.4,0,.8.2,1.3.5.4.2.8.6,1.2.9.2.2.5.3.7.5l3.5,2.5-.3-4.3c-.3-4.2-4-7.3-8.6-7.3h-.4l-37.9,1.6.2-.2-7,.4c-.7,0-1.2.1-1.8.1-1.7.1-3.4.3-5.1.5l-.9.1c-9.4.9-18.8,1.8-28.2,2.7-1.2.1-2.2.7-2.8,1.6-.7,1-1,2.3-.8,3.6l.5,3,2.5-1.7c1-.7,1.7-1.1,2.3-1.1.2,0,.4,0,.6.1,1.1.4,2.2,1.1,2.1,3.6,0,2.7-.2,5.5-.4,8.9l-.2,2.6c-.8,10.6-1.6,21.5-2.5,32.2-.5,6.4-1.1,12.9-1.7,19.2-.4,4-.7,8.1-1.1,12.1-.1.8.1,1.7.6,2.4-3.4-4.1-6.8-7.8-10.9-11-2.1-1.7-4.2-3.1-6.4-4.2,3.1-2.6,4.5-6.1,5.7-9.6.4-1.2.7-2.5,1-3.6,1.8-8.2,1.9-16.4,1.8-24.7-.1-6.6-1-11.6-3-16.2-2.4-5.6-5.7-8.9-10.1-10.3-3.7-1.2-7.3-2-10.7-2.3-1.1-.1-2.2-.1-3.3-.1-4.6,0-9.1.8-13.5,1.5-1.4.2-2.7.5-4.1.7-5.1.8-9.2,1.3-13,1.6h-.4c-.6,0-.8-.1-.8-.1-.1-.1-.2-.5,0-1.5.2-1.1,0-2.3-.5-3.3-1.1-2-3.4-3.3-5.8-3.3-.6,0-1.2.1-1.7.2-3.1.8-5.4,3.6-5.8,6.8-.3,3.1,1.6,6.5,4.5,7.7,1.4.6,3,1,4.8,1.2,1.6.2,2.5.6,3,1.3,1.2,1.5,2,2.9,2.6,4.1,1,2.4,1.4,5.2,1.4,8.8l-.1,8.2c-.1,14.3-.3,28.6-.5,42.9-.1,6.3-.2,12.6-.3,18.8-.1,4-.2,7.9-.2,11.9v.7c0,1-.1,2.1.2,3.2-2.4-6.2-4.2-12.8-5.9-20.5-2.9-12.9-5.8-25.9-8.6-38.6-1.8-8-3.5-16-5.3-24-.7-3.2-1.3-6.1-.8-9,.2-1.4.9-3.9,3.1-4.1h.7c.6,0,1.3.1,2,.1.5.1.9.1,1.4.1l2.7.2-.6-2.6c-.8-3.4-4.4-6.2-8.1-6.2-.4,0-.8,0-1.1.1l-2.8.4c-6.8,1.1-13.8,2.2-20.7,3.3-3.4.6-6.9,1.2-10.2,1.8-1.5.3-6.7,1.2-6.7,1.2l.6,2.2c.2.7.4,1.4.6,2,.4,1.3.8,2.5,1.1,3.8.9,4.5.5,9.1.1,12.6-.9,7.4-1.8,14.9-2.7,22.2-.4,3.2-.8,6.4-1.2,9.5l-1,7.8c-1.8,15-3.6,29.9-5.4,44.9,0,.3-.1.6-.1.9-.2,1.1-.4,2.3-.2,3.5-.2-.7-.4-1.4-.6-2.1-5.2-21.3-10.5-43-15.6-63.9l-3-12.5c-1.2-4.8-1.8-8.9-1.2-13,.6-3.6,1.8-4.3,4.3-4.3.4,0,.9,0,1.5.1s1,.1,1,1.2v11.4l3.8-7.2c.5-1,.8-1.9,1-2.8,1-3.8,0-7.4-3-10.6-.8-.9-1.8-1.3-3-1.3-.3,0-.7,0-1,.1-6.9,1.5-13.9,3-20.8,4.4-4.9,1-9.7,2.1-14.6,3.1-2.4.5-4.8,1.1-7,1.6-1,.2-2,.5-2.9.7l-2.2.5.7,2.1c.3.7.5,1.5.8,2.2.6,1.5,1.1,2.9,1.4,4.4.7,3.5.2,7.1-.4,10.4l-1.3,7.1c-1.9,10.4-3.9,21.2-5.9,31.8-2.7,13.9-5.3,27.8-8,41.7-1.9,10-3.9,20-5.8,30.1-.2,1,0,2,.2,2.6-1.3-3.1-2.1-6.7-2.2-10.7-.2-5.9-.2-11.9-.2-17.7v-56.7c0-9.1.4-16.8,2-24.4,1.4-6.4,3.2-10.9,5.9-14.7.2-.3.4-.6.7-1l3.8-5.2-38.8,9.9,1.8,2.4c3,4,3.3,8.3,3.3,12.1-.1,7.5-.2,15.1-.2,22.6,0,3.6-.1,7.2-.1,10.8-11.3-5.7-23.5-8.6-36.4-8.6h-1l.2-5.4c.3-6.7.5-13.5.8-20.2.1-3.3.3-6.6.4-10,.3-8.8.7-17.9,1.1-26.8.4-6.7,1.4-12.7,3.2-18.3,1.1-3.3,2.1-6.4,4.9-8.3.9-.6,1-1.6,1.1-2.2v-.4l.7-3.1-10.7,2.6c-6.6,1.6-13,3.2-19.5,4.8l-.3.1c-3.4.8-6.5,1.6-9.8,1.6-.9,0-1.8-.1-2.6-.2-3.5-.5-5.5-1.9-6.7-4.5-.4-.9-1.2-1.2-1.7-1.5-.1-.1-.3-.1-.4-.2l-3.2-1.9.1,3.7c.1,4.7,1.6,8.2,4.5,10.6,2,1.7,4.1,3.1,6.2,4.5.9.6,1.9,1.3,2.8,2,.4.3.9.6,1.3.9,1.1.7,2.1,1.4,3,2.3,2.1,1.9,3,4,2.9,6.4-.5,10-.9,20-1.4,29.9-.2,4.6-.4,9.2-.6,13.9-.3,5.7-.5,11.5-.8,17.2l-.1,6.6ZM627.39,173.2c-1.3,0-2.6.4-3.9,1.2-2.9,1.8-5,4.5-5.9,7.7l-.2.6c-1.2,4.1-2.4,8.3-3,12.6-2.4,17.7,1.9,33.5,12.8,46.8,15.4,18.8,36.4,28.7,62.3,29.6h2.3c13.8,0,27.3-4.1,40.1-12.1,15.6-9.8,27.2-22.5,34.5-37.6,6-12.6,7.1-25.5,3.1-38.5-2.4-8-5.9-16-10.7-24.6-5.5-9.9-12-19-18.8-28.2.3,0,.6,0,.8.1,2.4.2,4.6.4,6.8.8,9.4,1.9,17.5,6,24.1,12,1.7,1.5,3.3,3,5,4.5l3.7,3.4,2.5-2.2-.4-1.4c0-.1-.1-.5-.4-.9-12.2-15.2-27.9-23-46.8-23h-.1c-5.6-7.6-12.1-16.6-17.3-26.2-2.1-3.9-4.3-8.7-3.8-14s3-9.3,7.7-12.4c.3-.2.5-.2.5-.2,0,0,.1,0,.2.1.8.6,1.6,1.1,2.3,1.7,1.4.9,2.6,1.8,3.8,2.8,5.3,4.5,7.1,10.5,5.7,18.3-.1.5-.2.7-.2.8h0s-.1.1-.4.1l-4,.4,2.8,2.9c.4.5.8.9,1.2,1.3.9,1,1.7,1.9,2.7,2.8,1.7,1.4,3.5,2.1,5.3,2.1,2,0,3.9-.9,5.5-2.6,5.9-6.1,7.5-12.6,4.9-19.4-4.1-10.5-12.3-17.5-23.7-20.1-2.7-.6-5.5-.9-8.3-.9-5.8,0-11.6,1.3-17.3,3.9-5.9,2.7-10.1,6.9-12.5,12.7-2.5,5.9-3.1,10.9-1.9,16,1.8,7.5,5.1,15.3,10.2,24.3,2,3.6,4.1,7.1,6.2,10.6.6,1,1.2,2,1.8,3-9.3,4.7-17.4,10.8-24.3,18.2-7.7,8.4-12.7,17.3-15.3,27.2-2.5,9.4-2.5,19.5,0,30,5.9,25.3,21.2,41.3,45.5,47.6-7.7,3.7-15.8,5.6-24.1,5.6-4.3,0-8.7-.5-13.1-1.5-6.6-1.4-12.7-4.2-18.4-6.9-9.5-4.6-16.7-9.6-22.4-15.8-10.9-11.7-14.9-25.2-12.1-41.3h.6c1.4,0,2.5-.4,4-1.3,4.6-3,7.6-10,6.4-15.4-.7-3.1-3.1-5.2-6-5.2ZM665.39,217.2c-2.1,3-4.2,4.6-6.7,5.4-1.4.4-1.9,1.9-2,2.8v.5c-.1,2.4-.3,4.9-.3,7.4,0,5.8,1.5,11.7,4.4,17.5.4.8,1.2,1.8,2.4,2.3,3.8,1.5,7.5,3,11.2,4.3s7.5,1.5,11.2,1.8c1.1.1,2.2.1,3.4.2,1.4.1,2.7.2,3.8.2,2.1,0,4.1-.2,5.9-.6l3.4-.8-3.4-3.6c-.7-.8-1.4-1.5-2-2.1-.6-.7-1.3-1.3-1.9-2-1.5-1.6-3.1-3.4-5-4.8-7.6-5.9-13.3-12.7-17.4-20.7-.8-1.6-1.6-3.3-2.4-5-.4-.8-.7-1.6-1.1-2.4l-1.4-3.1-2.1,2.7ZM210.99,241.6v2c0,1.8,0,3.5.1,5.2.1,1.5,1.2,2.6,1.6,2.9,1.9,1.7,3.9,3.3,5.8,4.9l.9.8c.3.3.6.4.9.6.1.1.2.1.3.2l1.9,1.2,4.3-9.2-15.7-12.8v4.2h-.1ZM642.29,177.7c.1.4.2.8.3,1.2.3,1.5.6,3.2,2.4,4.6,2.8,2.2,5.5,4.5,8.1,6.8,1.1.9,2.2,1.9,3.3,2.8l7.7,6.5.4-3.8c.2-1.7.4-3.9-1.8-5.7-2.3-1.8-4.6-3.8-6.7-5.7-1-.9-2-1.7-3-2.6-1.6-1.4-3.2-2.7-4.9-4.1l-7.3-6.1,1.5,6.1ZM611.19,105.2c2.1,5.2,4.3,10.6,6.6,15.8,1.5,3.4,3,6.9,4.5,10.2,2.1,4.6,4.2,9.4,6.1,14.1,2.1,5,4,11,2.6,17.4l-.5,2.3,35.3,2.7-.6-2.6c-1.1-4.9-1.3-9.6-.7-14.5,2-16,3.9-30.7,5.9-45.1,2.2-15.5,4.6-31,6.4-42.8,1.2-7.8,2.4-14.3,3.7-20.3,1.1-5.2,3-9.1,5.8-12.1,1.7-1.9,3.5-2.8,5.5-2.8.5,0,1.1.1,1.7.2.2.1.4.1.7.1h4l-1.8-3c-1.1-1.9-2.9-2.9-5.4-2.9h-.6c-2.2,0-4.4,0-6.6.5-6.2,1.3-12.8,2.8-19.4,4.5-3.2.8-6.2,1.6-9.2,1.6-.8,0-1.5,0-2.2-.1l-.6-.1c-2.6-.3-3.3-.6-3.6-2l-.8-3-2.4,2c-1,.8-1.2,1.7-1.3,2.3,0,.7.1,1.6,1.1,2.7,1,1,2,1.9,3,2.6,1.6,1.1,2.6,2.3,2.9,3.6v.2c.6,2.5,1.2,5.1,1.1,7.4-.1,3.4-.6,6.9-1,10.3-.2,1.2-.3,2.5-.5,3.7-.9,8-1.9,16.1-2.9,24.1,0,0-3,25.2-4.2,35.1-.1,1.1-.3,2.3-.4,3.4-1-2.3-2-4.6-3-6.9-4.6-10.5-9.3-21.4-13.9-32.1l-.2-.5c-2.4-5.6-4.7-10.8-4.1-16.8l.2-1.8-1.8-.4h-.2c-.2-.1-.5-.1-.8-.1l-2.9-.2c-6-.4-12.1-.8-18.2-1.2h-.2c-1.2,0-2.3.8-3,1.5-2.1,2.6-2.9,5.5-3.7,8.4v.1c-2.3,8-3.1,16.3-3.8,24.3-.2,2.3-.4,4.7-.7,7-.5,4.6-1,9.3-1.4,13.9-.3,3.6-.7,7.2-1.1,10.8-.7,6.2-1.4,12.5-2.1,18.6l-.7,6.6c-.4,3.4.3,6.6,2,9.5.8,1.3,1.9,2,3.3,2,2.1,0,4.2.1,6.4.1,1.9.1,3.8.1,5.8.1h11.6s-1.1-3.5-1.2-3.8c-2.2-6.8-3-13.2-2.4-19.4.9-10.3,2-20.9,3-31,.2-1.7.4-3.5.5-5.2.2.3.3.6.4,1ZM690.79,140.8l14.5-9.1-10.6-18-3.9,27.1ZM685.79,44.6c-4.3,8.4-8.1,17.6-6.2,28.3l.6,3.7,2.7-2.6.2-.2c.2-.1.4-.3.6-.7.1-.2.2-.4.3-.7l.3-.5c4-7.6,8.3-12.9,13.4-16.7,1.6-1.2,3.2-2.1,4.9-2.7.2.6.6,1,.9,1.3.9.9,1.9,1.3,3,1.3.8,0,1.6-.3,2.3-.8,1-.8,1.9-2.4,1.7-3.8-.2-1.1-1-3.1-4.3-3.2-1.5,0-2.9-.1-4.2-.3l-1.2-.1c-4.4-.5-8.5-.9-12.1-3.3l-1.8-1.2-1.1,2.2ZM376.19,321l-.2-.1c.4,0,.7-.1,1.1-.1-.3.1-.6.2-.9.3v-.1ZM382.49,320.1h.2q-.1.1-.2,0h0ZM412.89,299.2c-.6-.5-1.3-.8-1.9-1.1h1.3c.6,0,1.1,0,1.7.1l-1.1.7.1.4-.1-.1ZM408.89,297.5c-1-.2-2-.3-2.9-.3l-.8-.1c-.6-.1-1.3-.1-1.9-.1,1.5-1,2.9-2,4.4-3,.1.2.1.3.2.5-.1.9-.1,2,.7,2.8.1.1.2.1.3.2ZM397.99,296.8h-2.6l.3-.1-.1-.4.5-.5h-.6l-.4-2.9c1.1,0,2.1.1,3.2.1h.2c1,0,2-.3,2.7-.8,15.7-11,31.8-22.4,49.4-34.9.2-.2.4-.3.6-.5.1.8-.3,1.1-1.4,1.9-10.9,7.6-49.8,34.7-49.8,34.7-.3.2-.5.4-.8.6l-1.6,1.2.8,1.6c-.1,0-.2,0-.4,0ZM387.49,292.5c-8.2-.2-16.4-.3-24.7-.6,1,0,2,0,2.9.1,5.2.1,10.4.2,15.7.3,2,0,4.1.1,6.1.2ZM292.59,289c-8.5-1.1-17.3-2.2-26-3.4-9.4-1.4-19-2.9-28.2-4.4-.5-.1-1-.2-1.5-.2l.8-3.1c9,1.7,18,3.4,27,5,11,1.9,22,3.3,31.7,4.5l-.1,2.1-3.7-.5ZM233.49,280.4c-2.5-.4-4.9-.8-7.4-1.2h.2v-.1l7.2,1.3ZM317.89,137.9c.1-3.9.2-8,.3-12.3.3-10.3.6-21.3,1.2-32.1.2-3.2.9-6.5,1.6-9.7l.4-1.7c.1-.5.6-1.2.8-1.3.8-.4,1.7-.7,2.4-.7.8,0,2,.2,2.8,2.3.3.6.6,1.4.6,2.2.3,2.4.5,4.9.6,7.4l.1,3c.3,8.6.6,17.5-.6,26.1-1.1,7.2-3.5,11.8-8,14.7-1,.6-1.7,1.3-2.2,2.1ZM389.19,112.6c.2.6.3,1.1.5,1.7.8,2.5.5,4.3-1,6,0-.7.4-5.8.5-7.7ZM411.89,115.2c-.4-.8-.3-1.8.3-3.4,0,0,0-.1.1-.1l-.4,3.5ZM400.09,84.8c-.8-2.5-1.7-5-2.5-7.5-1.5-4.7-.9-7.5,1.9-9.9l.8-.7,1.4.9c1.9,1.2,2.5,2.8,2.1,5.6-.3,1.7-.6,3-1,4.1-.8,2.4-1.7,4.9-2.7,7.5ZM514.19,68.5c-.7-.2-.7-.3-.8-.6,0-.4,0-1.4.9-1.7.2-.1.4-.1.5-.1.6,0,1.2.3,1.4.7.3.7.5,1.5.7,2.3l-2.7-.6Z"/>
      <path d="M691.39,17.9c1.8,0,3.5.2,5,.7,1.3.4,2.3.9,2.9,1.4,11.4,9.5,22.6,18.9,31.1,26.1,2.2,1.9,3.4,3.7,3.8,5.7.4,1.9,1.8,3.1,2.3,3.5.9.8,1.9,1.5,2.8,2.2,1.8,1.4,3.5,2.7,5,4.1.6.6,1.2,1.4,1.9,2.3.4.5.8,1.1,1.2,1.6.1.1.1.2.2.2.4.5.9,1.3,1.8,1.9,13.7,9.5,25.2,21.1,33.8,30.1,3.8,4,6.2,8.5,7.1,13.3,1.1,5.9-.2,11.4-4,16.8-.7,1-1.5,2-2.4,3-.5.5-.9,1.1-1.4,1.6l-2.3,2.7,2.4,2.6c7.6,8,14.4,16.6,20,25.3,3.2,5,5.9,9.7,8.1,14.3-3.2-2.8-6.4-5.7-9.6-8.5-3-2.6-6.5-4.2-9.2-5.3l-11.4-4.6,6.6,10.4c.6,1,1.2,1.9,1.8,2.9,1.2,1.9,2.4,3.8,3.5,5.6,6.9,11.4,11.5,21.5,14.5,31.6,4.6,15.7,2.5,31.1-6.2,45.7-12.1,20.3-29.2,34.5-51,42.3-7.9,2.8-16.3,4.2-25.1,4.2-1.8,0-3.6-.1-5.3-.2-14-.9-27.9-5.3-42.5-13.6-16-9.1-30.6-21.3-44.7-37.3-1-1.1-2-2.3-3-3.5,15.4,16.7,35.7,25.6,60.3,26.4h2.4c14.2,0,28-4.2,41.1-12.4,16-10,27.8-22.9,35.3-38.4,6.3-13,7.3-26.5,3.2-39.9-2.5-8.1-6-16.3-10.9-25-4.8-8.7-10.4-16.8-16.3-24.9,1,.1,2,.3,3,.5,9.1,1.9,16.9,5.7,23.2,11.5,1.7,1.5,3.4,3.1,5.1,4.6l2.3,2.1,2.6,2.4,2.7-2.3.1-.1.1-.1,2.1-1.8-.9-2.5c-.1-.3-.3-.9-.8-1.6-12.4-15.5-28.3-23.4-47.4-23.7-5.4-7.3-11.6-16-16.6-25.2-2.8-5.2-3.9-9-3.5-12.9.4-4.4,2.4-7.8,6.1-10.4.5.4,1,.7,1.5,1.1,1.3.9,2.5,1.8,3.6,2.7,4.6,3.9,6.3,9,5.1,15.8l-7,.8,5.5,5.8c.4.4.8.9,1.2,1.3.9,1,1.8,2,2.9,3,2,1.7,4.3,2.6,6.6,2.6,2.6,0,5-1.1,7-3.2,8-8.4,7.3-16.3,5.3-21.5-4.3-11.2-13-18.6-25.2-21.3-2.8-.6-5.8-1-8.7-1-6,0-12.1,1.4-18.1,4.1-6.4,2.9-10.9,7.5-13.6,13.7-2.6,6.2-3.3,11.8-2,17.2,1.3,5.6,3.4,11.2,6.4,17.3l-1,7-.4,3-2.1,14.2-.8,5.4c-2.8,2.3-5.4,4.8-7.8,7.4-5.6,6.1-9.9,12.6-12.9,19.6l-.9-4c-1-4.6-1.2-9.2-.6-13.9,2-16,3.9-30.7,5.9-45.1,1.6-11.7,3.4-23.2,5-33.6.1.4.1.7.2,1.1l1.3,7.4,5.4-5.2.1-.1c.2-.2.7-.6,1-1.2.1-.2.2-.5.4-.7.1-.2.2-.3.2-.5,3.9-7.3,8-12.4,12.9-16,1-.7,1.9-1.3,2.9-1.8q.1.1.2.2c1.2,1.2,2.8,1.9,4.4,1.9,1.3,0,2.5-.4,3.5-1.2,1.4-1.1,2.8-3.4,2.5-5.7-.2-1.1-1.1-4.7-6.3-4.8-1.5,0-2.8-.1-4-.3l-1.2-.1c-4.1-.5-8-.9-11.3-3l-3.7-2.3-2,3.9c-1,2-2,4-2.9,6,.4-2.4.9-4.7,1.4-6.9,1-4.8,2.7-8.5,5.3-11.2,1.8-1.9,3.1-2.1,4-2.1.4,0,.8.1,1.2.2s.7.1,1.1.1h7.6l-3.6-6c-1-1.8-3.1-3.9-7.1-3.9h-.6c-2.3,0-4.6,0-7,.5-6.2,1.3-12.8,2.9-19.5,4.5-3,.8-5.9,1.5-8.7,1.5-.7,0-1.3,0-1.9-.1-.2,0-.4-.1-.7-.1-.6-.1-1.5-.2-1.9-.3v-.2l-1.4-5.3c.5-.1.8-.2,1.2-.2s.8,0,1.6,1c1.7,2.2,4,3.4,6.7,3.4,1,0,2.1-.2,3.5-.5,7.8-1.9,15.4-3.8,23-5.4,2.6-.2,4.5-.4,6.4-.4M647.39,21l-3.2,2.7c-.2.2-.4.4-.6.6.8-1.5,2.1-2.6,3.8-3.3M646.39,33.9c.3.2.5.4.8.6,1.1.8,1.6,1.4,1.8,1.9-.4-.5-.8-.9-1.2-1.2-.5-.5-1-.9-1.4-1.3M95.79,53.3c.3.2.5.5.8.7l-5.6,1.4-8,2c-6.4,1.6-12.8,3.2-19.1,4.7l-.3.1c-3.2.8-6.3,1.6-9.3,1.6-.8,0-1.6-.1-2.3-.2-1.9-.3-3.1-.8-3.9-1.5.2,0,.3.1.5.1,1.3.4,2.6.6,4.1.6,2.1,0,4-.4,5.6-.8,5.4-1.3,10.8-2.6,16.2-3.9,5.7-1.4,11.6-2.8,17.4-4.2,1.2-.3,2.5-.4,3.9-.6M97.09,54.4c3.2,2.7,6.4,5.4,9.6,8.1,7.4,6.3,15,12.8,22.6,19.1,1.3,1,1.8,2,2,3.8.3,2,.6,3.9.9,5.9-.2,0-.4.1-.5.1-3.1.4-5.3,2.3-6.1,5.4-.1.5-.3,1.1-.6,1.7-.1.3-.2.7-.4,1.1l-2.3,6.9,7.1-1.8c1.4-.3,2.7-.7,4.1-1,2.9-.7,5.6-1.4,8.4-2.1,17.1-4,35.3-8.2,53.7-12.3,3.9-.9,7.8-1.7,11.7-2.5,2.2-.5,4.5-.9,6.7-1.4,2.7,2.1,5.3,4.3,8,6.4l3.8,3.1c.3.3.6.5,1,.8l.5.4,2.7,2.2,2.6-2.4.2-.2.1-.1,1-.9c.6,3.9.2,7.8-.1,10.8-.9,7.4-1.8,14.9-2.7,22.2-.4,3.2-.8,6.4-1.2,9.5l-.9,7.4c-1.6,12.8-3.1,25.6-4.7,38.4-4.5-18.3-9-36.8-13.3-54.8l-3.1-12.7c-1.1-4.6-1.7-8.5-1.1-12.2.4-2.6.8-2.6,2.4-2.6h.5v18.9l7.5-14.3c.6-1.2,1-2.3,1.2-3.2.8-3.1.9-7.9-3.5-12.5-1.5-1.6-3.2-2-4.4-2-.5,0-1,.1-1.5.2-6.9,1.5-14,3-20.8,4.4-4.9,1-9.7,2.1-14.6,3.1-2.4.5-4.8,1.1-7.1,1.6-1,.2-2,.5-2.9.7l-4.3,1,1.4,4.2c.3.8.5,1.5.8,2.3.5,1.4,1,2.8,1.3,4.1.7,3.1.2,6.5-.4,9.7l-1.3,7c-1.9,10.5-3.9,21.3-5.9,31.9-2.7,13.9-5.4,28.1-8,41.7-1.3,6.7-2.6,13.3-3.8,20-.1-5.1-.1-10.4-.1-15.4v-56.7c0-9,.3-16.5,2-24,1.3-6.1,3-10.4,5.5-14,.2-.3.4-.6.7-1l.5-.7,6.4-8.9-10.7,2.7-22,5.6-8.6,2.2-5.8,1.5,3.6,4.8c2.1,2.8,3,6,2.9,10.9-.1,7.5-.2,15.2-.2,22.6,0,2.5,0,5.1-.1,7.6-10.5-4.8-21.6-7.3-33.3-7.4l.1-3.7c.2-6.6.5-13.3.8-19.9.1-3.3.3-6.6.4-9.9.3-8.8.7-17.9,1.1-26.8.3-6.5,1.4-12.4,3.2-17.8,1.2-3.6,2-5.8,4.1-7.2,1.7-1.1,1.9-2.9,2-3.6v-.2l1.2-5.8M516.29,54.5h.1c5.4.1,11,.1,16.3.1,7.5,0,15.2,0,22.7.2,9.7.2,19.5.6,29,1.1l5.2.2c6.7.3,13.4.7,20.3,1.2,4.9.3,9.8.7,14.7,1.2.1,0,.2.1.3.2,3.9,3.3,7.9,6.6,11.7,9.9l3.9,3.3c.2.2.4.3.6.5l.3.3,5.1,4c-.2,1.8-.4,3.7-.7,5.5l-.6,5.1c-1,8.6-2.1,17.3-3.1,25.9,0-.1-.1-.2-.1-.3-4.6-10.5-9.3-21.3-13.9-32l-.2-.5c-2.3-5.3-4.4-10.4-3.9-15.8l.4-3.6-3.5-.7h-.1c-.2-.1-.6-.2-1.1-.2l-3-.2c-5.9-.4-12.1-.8-18.1-1.2h-.3c-.9,0-1.7.2-2.5.6l.5-1.1-6-.2-14.9-.6-12.2-.5-6-.2,2.1,5.6c1.6,4.4,2,7.2,1.6,11.2-.8,6.3-1.5,12.8-2.2,19-.1.6-.1,1.2-.2,1.8-1.8-5.2-3.6-10.5-5.3-15.8-1.4-4.2-2-8.3-1.9-12.1,0-1,.2-2.2.4-3.4.1-.6.2-1.3.3-1.9l.5-4.2-4.2-.3h-1.2c-10.8-.1-21.6-.1-32.4-.2h-.1c-3.5,0-6.4,1.8-8.5,5.3-2,3.2-2,6.8,0,10,1.8,3,4.4,3.5,5.7,3.5,1.1,0,2.3-.3,3.5-.9-.2,4.9-.4,9.6-.8,14-.6,6.8-1.3,13.6-1.9,20.3-.3,3.4-.7,6.8-1,10.2-.7,6.8-1.4,13.8-2.6,20.8-2.3-10.1-4.8-21.7-7.2-33.4-1.9-9.6-3.5-19.5-5-29l-.2-1.4c-.2-1.5-.3-3-.2-4.5.3.1.6.2.9.3l6.7,1.9-1.7-6.7c-.8-3.1-2.9-5.5-5.8-6.5-1.9-.6-4.4-1.4-7-1.4h-.3c-8.4.2-17,.5-25.3.8l-2.2.1c-2.2.1-4.4.2-6.7.4-1.1.1-2.2.2-3.3.2l-5.6.4c-1.2-.4-2.5-.6-3.8-.6h-.5c-6.2.3-12.4.5-18.5.8-4.5.2-9.1.4-13.6.6l.3-.3-11.8.7c-.4,0-.7,0-1,.1-.7,0-1.3.1-1.9.1-1.8.1-3.5.3-5.1.5l-1.5.1c-9.2.9-18.3,1.8-27.5,2.7-1.5.1-2.8.8-3.7,1.8.8-1.1,1.9-2.2,3.3-3.4,2.3-.2,4.6-.4,6.9-.6,6.8-.6,13.9-1.2,20.8-1.7,10.4-.8,19.7-1.4,28.5-1.9,2.2-.1,4.3-.3,6.5-.4,5.8-.4,11.8-.8,17.6-.8h6.9c4.2,0,8.5-.2,12.6-.3,2.2-.1,4.5-.2,6.7-.2,4.7-.1,9.5-.3,14.1-.5,3.4-.1,6.9-.3,10.3-.4h.6c2.4,0,4.9.5,7.4,1.6.4.2,1,.6,1.5.9.4.3.7.5,1.1.7l2.5,1.6,2.2-1.9c.5-.4,1-.9,1.6-1.4,1-.9,2-1.8,3-2.5,1.2-1.1,2.8-1.6,4.7-1.6M288.49,63.4h.4c2,.1,3.9.7,5.7,2.1.5.4,1,.7,1.5,1.1,1.1.8,2.2,1.6,3.1,2.4,1.4,1.2,3,1.8,4.8,1.8.4,0,.9,0,1.4-.1,1.9-.3,3.8-.6,5.6-.9,4.2-.7,8.5-1.3,12.7-1.7,1.4-.1,2.8-.2,4.1-.2,7.5,0,13.9,1.8,19.6,5.5h0c.1.2.3.6.5.9l2.2,3.2,3.3-2.1.2-.1.3-.2,1.5-1,.2-1.2,1.1,6,5.1-3.5c.7-.5,1-.6,1.2-.7.4.2.8.3.8,1.7,0,2.6-.1,5.4-.4,8.8l-.2,2.5c-.8,10.6-1.6,21.5-2.5,32.3-.5,6.4-1.1,12.9-1.7,19.1-.3,3-.6,6-.8,9.1-2.3-2.5-4.7-4.8-7.3-6.9-1.5-1.2-2.9-2.2-4.4-3.1,2.1-2.6,3.3-5.6,4.3-8.5.5-1.3.8-2.7,1-3.8,1.9-8.4,1.9-16.7,1.8-25.2-.1-4.3-.4-10.7-3.2-17-2.7-6.1-6.4-9.8-11.4-11.5-3.9-1.2-7.6-2-11.2-2.3-1.1-.1-2.3-.1-3.5-.1-4.8,0-9.4.8-13.9,1.5-1.3.2-2.7.5-4.1.7-4.6.7-8.4,1.2-11.8,1.5.1-1.3-.2-2.7-.8-3.8-1.4-2.6-4.4-4.4-7.6-4.4-.8,0-1.5.1-2.2.3-1.9.5-3.5,1.6-4.8,3,2.1-3.2,5.6-5.2,9.4-5.2M400.59,69.1l.2.1c.9.6,1.6,1.2,1.2,3.6-.2,1.6-.5,2.8-.9,3.8-.3.8-.5,1.5-.8,2.3-.2-.7-.5-1.4-.7-2.1-1.3-3.9-1-5.8,1-7.7M444.59,71.4c.3.2.7.5,1.1.8.2.2.5.4.7.5l6.2,4.5c.1,3.3-.3,6.9-1.3,11.3-3.8,16.8-7.8,34-12,52.4-.2,1.1-.5,2.2-.7,3.2-.2.9-.4,1.7-.6,2.5.2-5.7.5-11.2.9-16.4,1-14,2.2-28.1,3.3-41.9.3-3.3.5-6.6.8-9.9.2-2.9.6-5.1,1.6-7h0M276.89,73.1c-.1.3-.1.6-.1.9-.1.9-.1,1.8.1,2.7-.7-.2-1.4-.2-2.1-.2-.5,0-1,0-1.4.1l-2.7.4c-6.8,1.1-13.9,2.2-20.8,3.3-3.5.6-6.9,1.2-10.3,1.8-1.5.3-3,.5-4.4.8l-4.4.8,1.3,4.3c.1.4.3.8.4,1.2l-5.5-6.3,4.9-.9c9-1.6,18.3-3.2,27.5-4.8,4.3-.7,8.9-1.5,14.1-2.2,1.3-.2,2.5-.8,3.4-1.9M43.59,73.8c1.9,1.5,3.8,2.9,5.7,4.1.9.6,1.9,1.3,2.8,1.9.4.3.9.6,1.4.9s1,.7,1.5,1c-.5-.3-1-.6-1.5-.9-1.4-.8-2.8-1.6-4.1-2.5-2.3-1.3-4.2-2.8-5.8-4.5M324.49,82.1c.3,0,.6,0,1,1,.2.5.4,1.1.5,1.6.3,2.3.5,4.8.6,7.3,0,1,.1,2,.1,3,.3,8.9.6,17.3-.6,25.7-.9,6.1-2.8,10-6.1,12.6.1-2.5.1-5,.2-7.6.3-10.3.6-21.3,1.2-32,.2-3.1.8-6.2,1.5-9.4.1-.6.3-1.2.4-1.7,0,0,0-.1.1-.1.4-.3.8-.4,1.1-.4M284.79,84.5c.9.2,1.9.4,3,.6,1.3.2,1.7.4,1.7.5,1.1,1.4,1.8,2.6,2.3,3.7.9,2.1,1.3,4.7,1.2,8l-.1,8c-.1,14.2-.3,28.8-.5,43.2-.1,6.3-.2,12.6-.3,18.8,0,.9,0,1.8-.1,2.8-.7-2.5-1.3-5.1-1.9-7.9-2.9-12.8-5.8-25.9-8.5-38.5-1.8-8-3.5-16-5.3-24.1-.7-3-1.2-5.7-.8-8.3.1-.5.4-2.3,1.3-2.4h.5c.5,0,1.1.1,1.8.1.5.1,1,.1,1.5.1l5.4.3-1.2-4.9M611.99,112.3c1.3,3.2,2.6,6.3,4,9.5,1.5,3.4,3,6.9,4.5,10.2,2.1,4.6,4.2,9.4,6.1,14.1,1.9,4.7,3.8,10.4,2.5,16.2l-1,4.5,4.6.4,4.9.4,2.8,10.6c.1.3.2.7.2,1.1.3,1.6.8,3.9,3.1,5.8,2.7,2.2,5.5,4.5,8.1,6.8,1.1.9,2.2,1.9,3.3,2.8,1,.9,2,1.7,3.1,2.6l1.6,1.4,4.1,3.4c.3,2,.7,4,1.1,6,.4,1.5.8,3.1,1.2,4.5l-2.5,3.4c-1.9,2.6-3.6,4-5.7,4.6-2.1.6-3.3,2.8-3.4,4.6v.5c-.1,2.4-.3,5-.3,7.5,0,5.9,1.4,11.9,4.3,17.7-.3-.1-.6-.3-.9-.4-9.3-4.5-16.3-9.4-21.8-15.4-10.1-10.8-14-23.3-11.9-38,1.7-.2,2.9-.9,3.9-1.5,5.4-3.4,8.6-11.3,7.3-17.5-.9-4.2-4-7-7.9-7-1.6,0-3.3.5-4.9,1.5-3.4,2.1-5.7,5.1-6.8,8.9l-.2.6c-1.2,4-2.4,8.2-3,12.5v-2h-12.2c-8,.1-16.6.2-27.4.4l4.8-3.4c2-1.4,3-3.3,3.2-5.7.4-7.3-1.2-13.8-4.8-19.4h8.5c.9.4,1.8.6,2.6.6,2.1,0,4.2.1,6.3.1,1.9.1,3.9.1,5.8.1h14.3l-1.6-5.2-.1-.3c-.1-.3-.2-.6-.3-.9-2.1-6.6-2.9-12.6-2.3-18.6.9-9.1,1.9-18.7,2.8-28M537.89,120.7c2.1,5.6,4.2,11.2,6.2,16.8,2.7,7.4,2.9,12.9.9,18.5l-.6,1.7c-1.3.9-2.7,1.9-4,2.8l-.9-1.4c-2.6-3.9-3.2-5.6-3.3-8.6-.1-3.5-.1-6.6.1-9.4.4-6.9,1-13.8,1.6-20.4M477.39,122.7c.2,1.7.5,3.5.7,5.2.9,6.6,1.8,13.4,2.5,20.1.6,5.8.8,9.8-1.9,13.4l-5.3,7,8.7-.6,17-1.1,12.8-.8,4.3-.3v-.1c.4.1.7.1,1.1.1h.1c2.5-.1,5-.1,7.4-.2,1.8-.1,3.5-.1,5.3-.2h3.4c-16.5,11.7-33,23.3-49.6,34.9l-.6-1.2-2.9.4-22.4,2.9-10.1,1.3-9,1.2,6.9,5.8,4.7,4,5.8,5c-.2.1-.3.2-.5.3-2.5,1.7-5,3.4-7.4,5.4-4.6,3.7-6.5,8.8-5.4,14.1.5,2.4,1.3,4.6,2,6.4.5,1.5,1.1,2.9,1.6,4.4v.1c-.7,0-1.5.1-2.2.1-10.1,0-18.9-4.4-26.2-8.6-11.3-6.6-21.3-14.9-28.7-21.5-6.4-5.6-12.9-11.9-19.8-19,.6.6,1.2,1.1,1.8,1.7,6.5,5.9,14.5,12.4,24.7,16.3,5,2,9.6,2.9,14.1,2.9,3.6,0,7.1-.6,10.5-1.9,5.3-2,9.7-5.4,13.2-10l2.8-3.9-4.2-2.1c-.3-.2-1.1-.6-2.1-.6h-.2c-.4,0-.8.1-1.2.2-1.9.4-3.9.6-5.8.6-4.3,0-8.7-1-13.4-3.1-8.9-4-16.8-10.1-24.1-18.7-.7-.9-1.5-1.7-2.2-2.6,1.5-.2,3-.5,4.5-.8l2-.4,8.8-1.6h0l5.3-.7,8.2-1.1,26.6-3.6,5.5-.8c.3,0,.6.1.9.1h.5c3-.3,6-.6,8.9-.9,1-.1,2-.2,3.1-.3l4.6-.5,1.7-.2,5.3-.5-1.9-4.9c-.2-.4-.3-.8-.5-1.2-.3-.7-.5-1.2-.7-1.8-.9-3.1-1.1-6.6-.5-10.4,1-6.5,2.2-13,3.3-19.4.4-2.5.9-5,1.3-7.5.3-.1.6-.1.9-.2,1.1-.2,2.1-.4,3.2-.5,1,0,1.9-.1,2.8-.1M409.19,123l-.2,2c-.9,9.7-1.7,19.4-2.6,29.1-.3,3.2-.8,7.4-2.7,11-.6,1.2-1.4,2.4-2.2,3.6-.4.6-.8,1.2-1.1,1.8l-3.2,5.3-5.1-4c-1.9-1.5-3-3.1-3.2-5-.4-3.4-.8-7.4-.6-11.3.6-9.7,1.3-19.6,2-29.3h.1l18.8-3.2M319.69,146.7c1.2.6,2.2,1.1,3.1,1.7,2.5,1.8,4.9,3.8,7.2,6,6.4,6.2,12,13.3,16.9,20,4.3,5.8,8.9,11.8,14.1,17.6l-2.3.9-.2.1-.2.1-3.2,1.2.7,3.4c.1.7.3,1.5.4,2.2.3,1.7.7,3.4,1,5.2.8,3.9,2.7,7.2,4.5,10.1.7,1.2,1.5,2.3,2.2,3.5-.6.2-1.3.3-1.9.5-6.3,1.6-12.8,3.2-19,4.7-14.3,3.5-29.1,7.2-43.7,11.1-12.3,3.3-24.7,7.2-36.6,10.9-3.2,1-6.5,2-9.7,3-9,2.8-18.2,5.8-28,9.2l1.8-3.9.8-1.7,1.3-2.8-2.4-2-11.2-9.2-6.5-5.4v10.4c0,1.8,0,3.5.1,5.3.1,2.2,1.6,3.8,2.2,4.3,1.9,1.7,3.9,3.3,5.8,4.9l.9.8c.4.4.8.6,1.1.8.1,0,.2.1.2.1l.2.1c-12.5,4.4-26,9.5-41.2,15.5-8.4,3.3-16.9,6.8-25.2,10.2-2,.8-3.9,1.6-5.9,2.4-6.4-5.4-12.8-10.9-19.1-16.2l-4.4-3.7c-.3-.2-.5-.4-.9-.7-.2-.1-.3-.2-.5-.4l-6.4-4.8v9.8c0,1.3-.1,2.7.1,4.1.3,2.7.8,5.3,1.4,8,.8,3.6,2.8,5.3,5.1,7.2l.1.1h0l.2.1h.2c1.9,1.4,3.8,2.8,5.7,4.2.1.1.2.2.3.2-.3.2-.7.3-1,.5-14.1,6.8-32.6,15.6-51.4,24.7-11.3-6.4-22.5-14.2-33.4-23-8.5-6.9-15.6-13.9-21.6-21.2,5,5.3,11,10,17.8,14,1.1.7,2.2,1,3.4,1,1,0,2-.3,3.1-.8,10.3-5,20.8-10.1,30.9-15l7-3.4c.5-.2,1-.5,1.5-.7l.8-.4,6.5-3.1-6.1-3.9c-2.1-1.4-3.5-3.3-4.2-6.1-.8-2.8-1.5-5.7-1.6-8.5-.2-4.8,0-9.7.2-14.5l.1-1.5c.3-9.3.7-18.7,1.1-27.8.2-4.4.4-8.9.5-13.3l.1-2.1c.2-4.6.4-9.4.5-14.1h3.5c7.4.3,13.5,1.7,18.7,4.4,4.4,2.2,7.1,4.9,8.7,8.3.4.8.6,2,.5,3,0,.4-.1,1.3-2.6,2.7-.9.5-2,.9-3.2,1.4-.6.2-1.2.5-1.8.7l-6.2,2.6,5.2,4.2c3,2.5,6.5,3.7,10.5,3.7h.4v2.4c0,1.6,0,3.1-.1,4.7-.1,4.3-.1,8.7-.3,13-.5,9.9-2.2,17.8-5.4,25-.2.5-.9,2.3.5,4.2l1.7,2.6,3-1.2,14.5-5.8,18.1-7.3,4.2-1.7c.5-.1,1-.2,1.5-.4,4.5-1.7,9.2-3.4,13.7-5.1,2-.7,4-1.5,6-2.2.4-.2.8-.3,1.1-.5.1-.1.2-.1.4-.2l7.5-3.5-7.4-3.7c-.9-.5-1.5-1.1-2-3.4-.8-3.7-.9-7.9-.1-12.4,1.7-9.8,3.5-19.7,5.3-29.3.4-2.1.8-4.1,1.2-6.2,3.7-1.5,7.7-2.7,12.1-3.7.2.7.4,1.4.5,2.1.8,3.2,1.7,6.5,2.4,9.8.2,1.1.5,2.2.7,3.3,1.4,6.4,2.9,13,3.9,19.5.8,5,.3,8.9-1.5,12.3l-4.7,8.7,9.4-3,20.9-6.7,10.7-3.4,6.2-2c.9-.1,1.8-.4,2.5-.6.4-.1.8-.2,1.1-.3.8-.2,1.5-.4,2.1-.6.2-.1.4-.1.6-.2,1.7-.5,3.3-1,5-1.5l1.8-.5,5.4-1.6-3.3-4.6c-1.9-2.6-2.7-5.8-2.7-10.3.1-6,.5-12.1.9-18v-.5c.3-4.4.8-8.9,1.2-13.3l.1-.7c2-.6,3.9-1.2,6-1.8.4,1.7.7,3.4,1.1,5.2,1.2,5.7,2.4,11.6,3.7,17.4.9,4.2,1.5,7.7.8,11.2-.3,1.6-.8,3.2-1.4,4.9-.2.8-.5,1.6-.7,2.4l-1.9,6.7,6.8-1.8,9.5-2.5,18.9-4.9,4.3-1.1c.3,0,.6-.1.9-.1,5-1.1,10-2.3,14.8-3.5l3.6-.9,4.4-1-1.6-4.2c-.3-.8-.6-1.6-.9-2.4-.6-1.6-1.2-3.1-1.7-4.6-1.9-6.6-2.8-14-2.7-23.8.3-2.9.4-6,.4-9.3M55.59,151.8l-.1,2.3c-.5.2-.9.4-1.4.6-2.7,1.1-5.4,2.3-8,3.7-9.5,5.2-17.5,11.8-24.1,19.7,8.2-10.5,18.5-18.5,30.9-24,1.4-.6,2.2-1.4,2.7-2.3M639.19,167.6l23.8,1.8,4.6.4c-1,2.4-1.8,4.8-2.4,7.2-.9,3.6-1.5,7.2-1.8,11-2.1-1.7-4.1-3.5-6.1-5.2-1-.9-2-1.7-3-2.6-1.6-1.4-3.2-2.7-4.9-4.1l-2.5-2.1-7.7-6.4M699.79,252.8c2.2,1,4.5,1.9,6.8,2.7-1.1.4-2.2.8-3.3,1.1l-2.2-2.3c-.3-.4-.7-.7-1-1.1-.1-.1-.2-.2-.3-.4M691.39,13.9c-2.3,0-4.7.3-7,.8-7.7,1.6-15.4,3.5-23.1,5.5-.9.2-1.7.4-2.5.4-1.3,0-2.5-.4-3.5-1.8-1.4-1.9-3-2.5-4.7-2.5-1.2,0-2.5.3-3.9.8-5.5,1.9-8.7,7.1-7.4,12.7.9,3.7,3.4,6.2,6.3,8.4.7.5,1.2,1.4,1.4,2.2.3,1.1.3,2.2.2,3.3-.7,6.3-1.4,12.5-2.1,18.7-.3,2.2-.6,4.5-.9,6.9-.4-.3-.6-.5-.8-.6-5.2-4.4-10.4-8.8-15.6-13.2-.6-.5-1.5-1-2.3-1.1-5-.5-10-.9-15-1.2-6.8-.4-13.6-.9-20.4-1.2-11.4-.5-22.9-1.1-34.4-1.3-13-.2-26-.1-39.1-.2h-.2c-2.7,0-5.1.7-7.2,2.2-1.7,1.2-3.2,2.7-4.9,4.1-1-.6-2-1.5-3.2-2-2.9-1.2-5.8-1.8-8.9-1.8h-.7c-8.1.3-16.2.7-24.4.9-6.4.2-12.8.5-19.2.5h-6.9c-8.1,0-16.2.7-24.3,1.2-9.5.5-19,1.2-28.5,1.9-9.4.7-18.8,1.5-28.2,2.3-.4,0-.8.1-1.1.3-3,2.4-5.7,4.9-6.5,8.9-.2.9-.3,1.9-.4,2.8-.2.1-.3.2-.5.3-.4-.6-.7-1.3-1.2-1.7-6.8-4.6-14.4-6.5-22.3-6.5-1.5,0-3,.1-4.5.2-6.2.5-12.4,1.7-18.5,2.6-.3,0-.6.1-.8.1-.8,0-1.4-.2-2.1-.8-1.5-1.3-3.2-2.5-4.8-3.7-2.4-1.8-5-2.8-7.9-2.9h-.5c-6.5,0-12.3,4.1-14.4,10.4-.3.8-.6,1.2-1.5,1.3-4.7.7-9.5,1.4-14.2,2.2-11.2,1.9-22.3,3.9-33.5,5.9-1.9.3-3.7.7-5.8,1.1,3.7,4.3,7.2,8.3,10.8,12.4-.1.1-.2.2-.3.3-.5-.4-1-.8-1.5-1.2-4.1-3.3-8.1-6.5-12.2-9.8-.6-.5-1.1-.6-1.8-.6-.3,0-.6,0-1,.1-6.2,1.3-12.4,2.5-18.6,3.9-17.9,4.1-35.8,8.2-53.7,12.3-4.1,1-8.2,2.1-12.5,3.1.4-1.1.7-2,1-3,.4-1.4,1.2-2.3,2.8-2.5,1.5-.2,3-.7,4.6-1.1-.6-3.2-1.2-6.3-1.6-9.3-.3-2.6-1.3-4.6-3.4-6.4-11.4-9.5-22.6-19.1-33.9-28.6-.4-.3-1.1-.6-1.6-.6h-.1c-1.8.1-3.6.3-5.3.8-11.2,2.7-22.4,5.4-33.6,8.1-1.6.4-3.1.7-4.7.7-1,0-2-.1-3-.4-3.2-.9-5.6-3-7.6-5.6-.3-.4-.9-.9-1.4-.9h0c-2.2.2-4.4.5-6.7.8.1,1.8.2,3.4.2,5.1.1,3.6.2,7.2,1.5,10.7,2.2,6,6.4,10,11.6,13.4,2,1.3,4,2.4,6,3.6,1.4.8,2.2,1.9,1.8,3.7-.2.7-.1,1.4-.1,2.1-.3,7.5-.6,15-.9,22.5-.5,11.7-1.1,23.4-1.6,35,0,.8-.3,1.2-1.1,1.5-17.4,7.7-30.7,20-39.9,36.5C2.69,202.9-1.51,220,.49,238.4c1.3,12.2,5.4,23.4,12.6,33.5,7.9,11.1,17.4,20.7,27.9,29.3,10.9,8.9,22.3,16.9,34.6,23.8.4.2.8.5,1.3.5.2,0,.5-.1.8-.2,17.5-8.4,35-16.9,52.5-25.2,1.1-.5,2.6-1.2,3.3-1.5,0,0,.4-.1.6-.3l.2-.1,3-1.5c-4-2.9-7.7-5.6-11.6-8.4l-.2-.1c-2.1-1.8-3.3-2.7-3.9-5.1-.6-2.5-1-5-1.3-7.5-.2-1.7,0-3.4,0-5.4.6.5.9.7,1.2.9,8.1,6.9,16.2,13.7,24.3,20.6.5.4.9.6,1.4.6.3,0,.6-.1,1-.2,10.6-4.3,21.2-8.7,31.9-12.9,24.6-9.6,49.4-18.8,74.7-26.6,15.4-4.7,30.7-9.7,46.2-13.8,20.8-5.6,41.7-10.5,62.6-15.8,2.3-.6,4.7-1.2,7.1-1.8-1.8-2.9-3.4-5.6-5-8.2-1.7-2.7-3.3-5.6-4-8.8-.5-2.4-1-4.9-1.5-7.4.1,0,.2-.1.4-.1.4.4.7.7,1.1,1.1,8.3,8.9,16.8,17.5,26,25.5,9.2,8.1,18.7,15.7,29.3,21.9,8.8,5.2,18,9.2,28.3,9.2,1.5,0,3-.1,4.5-.3h0c.3,0,.6.3.9.5-.2.4-.4.8-.7,1.1-16.4,11.6-32.9,23.3-49.4,34.9-.4.3-1,.5-1.6.5h-.1c-5.7-.2-11.4-.5-17-.7-10.1-.2-20.1-.4-30.2-.6-5.7-.1-11.4-.2-17-.7-11.6-1-23.1-2-34.6-3.3-11.5-1.4-23.1-2.8-34.6-4.8-16.9-2.9-33.6-6.3-50.4-9.5-.9-.2-1.8-.3-2.7-.3-1.2,0-2.4.3-3.6,1.2,5.7,1.2,11.3,2.3,17,3.5-.1.4-.3.8-.4,1.2-5.2-1-10.3-1.9-15.4-3-1.3-.3-2.5-.4-3.6-.4-2.4,0-4.5.6-6.6,2,8.2,1.7,16.4,3.3,24.5,4.9-.1.9-.4,1.6-.3,2.2.1.5.4,1.1.8,1.3,3.3,1.7,6.6,3.4,10,4.8,19.5,8.4,40,12.4,60.9,15.2,6.1.8,12.3,1.7,18.4,2.4,5.5.7,11.1,1.3,16.7,1.8,5,.5,9.9,1,14.9,1.3,3.3.2,6.5.6,9.8.6,1.8,0,3.5-.1,5.3-.4,4.7-.9,9.3-2,13.1-5.1,2.2-1.7,4.5-3.6,3.3-6.9h15.1c-.4.5-.6.7-.9,1h7.1c2.3.1,4.7.1,7,.3s4.6.2,6.6,1.7c-6.4.4-12.8.8-19.3,1.2v.2c6.8-.2,13.5-.4,20.5-.7.2.4.6,1,1,1.8-7.9,2-15.8,2.6-23.7,2.6h-2.1c2.4.1,4.9.2,7.3.2,6.1,0,12.1-.5,18-1.8.1,1.9-.5,3.2-1.8,3.4-5.4,1-10.8,2.1-16.2,2.8-4,.5-8.1.6-11.6.8,1.2.1,2.4.1,3.7.1,6.9,0,14.1-1,21.4-2.4-.2,1.8-.8,2.7-2.6,2.9-3.4.4-6.5,1.9-9.9,2.3-3.4.4-6.8,1.5-10.1,2.3h1.1c1.3,0,2.6-.1,3.9-.3,5.7-1,11.4-1.8,17-3,4.1-.9,6.2-4.3,5.8-8.5,0-.3.3-.6.4-.8l.4.2c0,.8.1,1.6,0,2.4-.6,4.3-3,6.9-7.8,7.8-5.4,1-10.8,1.7-16.2,2.7-8.8,1.5-17.7,2.6-26.7,2.7-4.5.1-9,.1-13.5.1-6.8,0-13.5-.1-20.3-.3-6.5-.2-13-.9-19.5-1.5-6-.5-12-1.2-17.9-1.8-7.5-.8-15-1.6-22.5-2.4-7.3-.8-14.7-1.4-22-2.4-9.9-1.3-19.9-2.8-29.8-4.5-14.7-2.5-29.4-5.1-44-7.9-6.1-1.1-12.2-2.5-17.8-5.4-.6-.3-1.2-.5-1.7-.5-.7,0-1.3.3-2.1.8,2.7,1.9,5.7,3.1,8.8,4.1,9.2,3,18.8,4.5,28.3,6.2,10.2,1.8,20.4,3.6,30.6,5.2,7.7,1.3,15.4,2.5,23.1,3.5,5.9.8,11.9,1.4,17.9,2.1,7.4.8,14.8,1.6,22.3,2.4,7.6.8,15.2,1.6,22.8,2.3,9.1.8,18.1,1.8,27.2,2.1,4,.1,8,.2,11.9.2,5.7,0,11.5-.1,17.2-.1,1.7,0,3.4-.2,5.4-.3-.5.6-.8.9-1.1,1.3-1.5,1.8-3,3.6-4.4,5.5-1.1,1.4-1.2,3-.4,4.6.4.9,1,1.8,1.6,2.6,1.4,1.9,3.6,2.7,5.6,3.5h2.5c3.5-1.5,3.8-1.9,3.5-5.9-.1-1.3.1-2.4,1.1-3.5,2.7-3,5.2-6.2,7.9-9.2.3-.4.9-.7,1.4-.8,4-.6,8-1.1,12-1.8,4.1-.7,8.2-1.4,12.1-2.6,4.7-1.4,7.4-6.8,6.5-11.5-.2-.9,0-1.4.8-1.9,14.2-8.6,27.4-18.6,40.9-28.3,34.9-25.3,69.9-50.4,104.8-75.6.5-.3,1.1-.5,1.7-.6,1.4-.1,2.8-.2,4.2-.2,10.3-.2,20.7-.3,31-.4h8.2v3.6c-.6,11.6,1.6,22.7,6.7,33.2,3.6,7.4,8.6,13.9,14,20,13.3,15.1,28.2,28.2,45.7,38.1,13.7,7.8,28.3,13.1,44.2,14.1,1.9.1,3.7.2,5.6.2,9,0,17.9-1.4,26.4-4.4,23.1-8.2,40.7-23.1,53.1-44,9-15.2,11.6-31.6,6.6-48.9-3.4-11.6-8.7-22.3-14.9-32.5-1.7-2.8-3.5-5.5-5.4-8.6,3.1,1.2,5.7,2.6,8,4.6,6.7,5.9,13.4,11.9,20.1,17.9.4.4.9.7,1.6,1.2-3.1-11.1-8.2-20.8-14.2-30.1s-12.9-18-20.5-25.9c1.4-1.7,2.8-3.2,4-4.9,4.2-6,6-12.6,4.6-19.9-1.1-5.9-4-11-8.1-15.4-10.6-11.1-21.7-21.7-34.4-30.6-.5-.3-.8-.9-1.1-1.4-1.2-1.5-2.1-3.2-3.5-4.5-2.5-2.3-5.3-4.3-8-6.5-.4-.3-.8-.7-.9-1.2-.7-3.4-2.7-5.9-5.2-8-10.3-8.7-20.7-17.5-31.1-26.1-1.2-1-2.7-1.7-4.2-2.1-2.5-.5-4.6-.8-6.6-.8h0ZM655.19,30.5c3.3,0,6.5-.8,9.7-1.6,6.4-1.6,12.9-3.1,19.3-4.5,2.2-.5,4.5-.4,6.7-.4h.1c1.4,0,2.8.4,3.7,1.9h-.7c-.8-.2-1.5-.3-2.2-.3-2.7,0-5,1.3-6.9,3.4-3.4,3.7-5.2,8.3-6.2,13.1-1.4,6.7-2.6,13.6-3.7,20.4-2.2,14.2-4.4,28.5-6.4,42.8-2.1,15-4.1,30.1-5.9,45.1-.6,5-.4,10,.7,15.2-10.2-.8-20.2-1.6-30.3-2.3,1.5-6.6-.2-12.7-2.7-18.6-3.4-8.2-7.1-16.2-10.6-24.4-3.2-7.6-6.3-15.2-9.5-22.8-.1-.3-.2-.5-.5-1.1-.2.7-.3,1.1-.3,1.5-1.4,14.1-2.9,28.2-4.2,42.4-.6,6.9.4,13.6,2.5,20.2.1.4.3.9.4,1.2h-8.9c-4-.1-8.1-.2-12.1-.3-.8,0-1.2-.3-1.6-1-1.5-2.6-2.1-5.3-1.7-8.3.9-8.4,1.9-16.8,2.8-25.2.9-8.2,1.6-16.5,2.5-24.7,1.1-10.4,1.6-20.8,4.5-30.9.8-2.8,1.5-5.5,3.4-7.8.3-.4.9-.8,1.4-.8h0c7,.4,14.1.9,21.1,1.4.2,0,.4.1.7.1-.7,6.6,2,12.5,4.4,18.3,6.3,14.7,12.7,29.4,19.1,44,.2.4.4.8.8,1.6.5-3.8.9-7.2,1.3-10.6,1.2-9.9,2.4-19.9,3.6-29.8,1.2-9.8,2.3-19.6,3.5-29.4.6-4.7,1.3-9.4,1.5-14.1.1-2.7-.6-5.5-1.2-8.1-.5-2.1-1.9-3.6-3.7-4.8-1-.6-1.9-1.4-2.7-2.3-.6-.6-.9-1.4,0-2.1.8,3.2,3.5,3.2,5.9,3.5.7,0,1.5.1,2.4.1h0ZM681.49,72.6c-1.7-10,1.6-18.6,6-27.1,4.4,2.8,9.3,3.1,14.2,3.7,1.4.2,2.9.2,4.4.3,1.1,0,2.2.3,2.4,1.5.1.6-.4,1.5-.9,1.9-.3.3-.7.4-1.1.4-.6,0-1.1-.3-1.6-.8-.8-.8-.5-1.7.3-2.8-3.4.8-6.1,2.1-8.6,4-6.2,4.6-10.5,10.7-14,17.4-.2.4-.4.8-.6,1.1-.1.1-.2.1-.5.4h0ZM91.89,59.3c-.1.6-.1,1.1-.3,1.3-3.3,2.2-4.5,5.8-5.7,9.3-2,6.1-3,12.4-3.3,18.8-.6,12.2-1,24.5-1.5,36.8-.3,8.9-.7,17.7-1,26.6v1.1c1,0,2-.1,3-.1,13.5,0,26.2,3.2,38.2,9.9,0-1,.1-1.9.1-2.8.1-11.3.2-22.6.3-33.8.1-4.7-.6-9.2-3.7-13.3,10.2-2.6,20.2-5.2,30.6-7.8-.6.8-.9,1.3-1.3,1.8-3.3,4.7-5,10-6.2,15.5-1.8,8.2-2,16.5-2,24.8,0,17.7-.1,35.5-.1,53.2,0,7.1-.1,14.2.2,21.3.2,5.7,1.6,11.3,4.9,16.1.9,1.3,2.1,2.4,3.2,3.6-10.9,4.4-21.7,8.8-32.5,13.1,0-.1-.2-.2-.1-.2,3.7-8.4,5.3-17.3,5.7-26.4.3-5.9.3-11.8.4-17.8v-7c-1.5.4-2.9.6-4.4.6-2.8,0-5.5-.8-7.9-2.8,1.8-.8,3.7-1.4,5.3-2.2,2.4-1.3,4.5-3,4.8-5.9.1-1.6-.2-3.5-.8-5-2.2-4.7-6-7.9-10.5-10.2-6.4-3.3-13.3-4.6-20.4-4.8h-1.6c-1.4,0-2.8.1-4.2.1h-.5c-.9,0-1.2.3-1.3,1.3-.2,6.2-.4,12.5-.7,18.7-.5,13.7-1.1,27.4-1.6,41.1-.2,5.4-.4,10.9-.2,16.3.1,3.1.9,6.3,1.7,9.4.9,3.4,2.7,6.3,5.9,8.4-.9.4-1.6.8-2.4,1.1-12.6,5.9-25.3,12-37.9,18.2-.5.2-.9.4-1.3.4s-.9-.1-1.4-.4c-14.8-8.7-25.8-20.7-31.3-37.3-4.4-13.4-4.1-26.9-.1-40.4,6.2-21.1,18.5-37.4,37.9-48,3.6-2,7.5-3.4,11.4-5.2.4-8.2.8-16.6,1.2-25,.7-14.6,1.3-29.2,2-43.8.2-3.3-1.3-5.8-3.6-7.9-1.4-1.3-3-2.2-4.5-3.3-3-2.1-6.1-4.1-8.9-6.4-2.6-2.2-3.7-5.3-3.8-9.1.6.4,1.2.5,1.4.9,1.6,3.5,4.6,5,8.3,5.6,1,.1,1.9.2,2.9.2,3.6,0,7.1-.9,10.6-1.8,8.9-2.3,17.8-4.5,27-6.8h0ZM511.69,71.1c-.9,0-1.7-.5-2.3-1.5-1.2-2-1.1-3.9,0-5.9,1.2-1.9,2.7-3.4,5.1-3.4h0c10.8.1,21.6.1,32.4.2.3,0,.6,0,.9.1-.2,1.9-.6,3.8-.7,5.7-.1,4.6.7,9.1,2.1,13.4,2.8,8.5,5.7,17,8.6,25.5.7,2.2,1.5,4.3,2.5,6.5.4-3.2.8-6.3,1.1-9.5,1.1-9.4,2.1-18.9,3.2-28.3.5-4.5.2-7.9-1.8-13.1,9.1.4,18,.7,27.1,1.1-4,8.5-5.3,17.5-6.4,26.5-1.8,14.5-3.3,29.1-4.8,43.7-.7,6.7-1.2,13.5-1.7,20.2-.2,2.8.3,5.6,1.6,8.4h-8.9c-.4,0-.8-.3-1.1-.6-3.8-3.3-8.2-5.5-12.9-6.9-.1,0-.3-.1-.5-.1-.4,0-.9.1-1.2.3-1.8,1.2-3.5,2.5-5.6,3.9,2.7-7.5,1.5-14.4-.9-21.2-3.8-10.7-7.8-21.3-11.8-32-.1-.3-.3-.6-.6-1.2-.4,4.2-.8,8.1-1.1,12-.7,8.6-1.5,17.1-2.1,25.7-.2,3.3-.2,6.6-.1,9.9.1,3.9,1.1,6.3,4,10.7h-6.1c-4.2.1-8.5.3-12.7.4h0c-.5,0-1.2-.4-1.4-.7-1.7-3.9-3.2-7.8-4.8-11.7-.2-.4-.1-1,0-1.5,2.2-9.4,3.2-19,4.2-28.6,1-10.2,2.1-20.4,3-30.6.5-5.7.8-11.3.9-17,0-1.8-.6-3.6-1.2-5.3-.5-1.3-1.9-2.1-3.3-2.1-.4,0-.7.1-1.1.2-1.5.4-2.3,1.8-2.3,3.6,0,1.5.9,2.2,2.3,2.5-.3.5-1,.7-1.6.7h0ZM445.49,167.2c-.7,0-1.4-.3-2-.6-2.4-1.5-4.6-3.2-5.2-6.2-.1-.5-.2-1.1,0-1.5,2.5-5.4,3.5-11.3,4.8-17.1,4-17.5,8.1-35,12-52.4,1.3-5.7,2-11.4.9-17.2-.6-2.9-1.7-5.6-4.2-7.9,3.6-.2,6.7-.5,9.9-.6,9.1-.3,18.2-.7,27.3-.9h.2c1.9,0,3.9.5,5.7,1.1,1.7.6,2.8,1.9,3.3,3.7-1.1-.3-2.1-.8-3.2-.9h-.5c-1.3,0-2.1.7-2.2,2.2-.2,2.5-.2,5,.1,7.4,1.6,10.2,3.2,20.4,5.3,30.5,2.5,12.6,5.3,25.1,8.1,37.6,1.3,5.8,3.1,11.5,5.8,16.9.1.1,0,.3.1.5-9.9.6-19.8,1.3-29.9,1.9,3.8-5.1,3.3-10.7,2.7-16.3-1-9.5-2.4-18.9-3.6-28.4,0-.1-.1-.3-.2-.7-2.2.2-4.4.3-6.6.5-2,.2-4,.7-6,1-.8.1-1.1.5-1.3,1.2-1.7,9.6-3.4,19.1-4.9,28.7-.6,4-.6,8.2.6,12.2.3,1.1.8,2.1,1.3,3.3-2.1.2-4.2.4-6.3.7-4,.4-7.9.9-11.9,1.2q0,.1-.1.1h0ZM688.49,262.8c9.9,0,19.5-2.5,28.6-7.7.3-.2.5-.3,1.1-.7-1.3-.3-2.3-.4-3.4-.7-25.1-5.9-40.1-21.8-45.9-46.6-2.2-9.6-2.5-19.4,0-29,2.6-10.1,7.8-18.8,14.9-26.4,6.9-7.5,14.9-13.4,24-18,.5-.3,1.1-.6,1.6-.8-3-5.2-6.1-10.2-9-15.4-4.3-7.5-7.9-15.3-10-23.8-1.2-5.1-.2-10,1.8-14.7,2.3-5.4,6.2-9.2,11.5-11.6s10.8-3.7,16.4-3.7c2.6,0,5.2.3,7.8.9,10.4,2.4,18.3,8.6,22.3,18.9,2.6,6.6.2,12.4-4.5,17.2-1.3,1.3-2.6,1.9-4.1,1.9-1.3,0-2.7-.6-4-1.7s-2.4-2.5-3.8-3.9c1.8-.2,2.2-1.4,2.4-2.5,1.5-7.8-.1-14.8-6.4-20.2-2-1.7-4.2-3-6.3-4.6-.5-.4-1-.5-1.4-.5-.5,0-1,.2-1.6.5-5.1,3.3-8,7.8-8.6,13.9-.5,5.5,1.4,10.4,4,15.2,5.1,9.4,11.3,18.1,17.6,26.7.3.4.9.6,1.4.6h.1c18.7,0,33.6,7.7,45.2,22.2.1.1.1.2.1.4q-.1.1-.2.2c-2.5-2.2-4.9-4.5-7.4-6.7-7.2-6.6-15.6-10.5-25.1-12.4-3.3-.7-6.6-.8-9.9-1.1h-2.1c.5.7.7,1.1,1,1.5,7.2,9.7,14.2,19.4,20.1,29.9,4.3,7.7,8,15.7,10.6,24.2,3.9,12.8,2.7,25.1-3,37-7.5,15.7-19.2,27.6-33.8,36.8-12,7.5-25,11.8-39,11.8h-2.3c-24.4-.8-45.1-9.8-60.8-28.9-10.8-13.1-14.7-28.5-12.4-45.3.6-4.4,1.9-8.7,3.1-13,.8-2.8,2.5-5,5-6.6,1-.6,1.9-.9,2.8-.9,1.9,0,3.5,1.4,4,3.8,1,4.6-1.6,10.8-5.6,13.3-1,.7-1.9,1-2.9,1-.6,0-1.3-.1-2.2-.4-3.4,17,.3,32.1,12.3,45,6.5,7,14.4,12.1,23,16.2,6.1,2.9,12.2,5.6,18.8,7.1,5.2,1.1,9.7,1.6,14.2,1.6h0ZM400.09,90.5c1.7-4.4,3.2-8.5,4.7-12.6.5-1.4.8-3,1.1-4.5.5-3,0-5.6-3-7.5.5-.1.7-.2.9-.2,12.7-.5,25.3-1.1,38-1.6h.3c3.5,0,6.4,2.3,6.6,5.4-.7-.5-1.4-1.1-2.1-1.5-.8-.5-1.6-.8-2.4-.8-1.3,0-2.4.7-3.2,2.2-1.5,2.7-1.9,5.7-2.2,8.7-1.4,17.3-2.9,34.6-4.1,51.8-.6,8.4-1,16.8-1.2,25.2-.1,4.7,1,9.2,5,12.7-11.7,1.6-23.3,3.2-34.8,4.8,1.2-1.9,2.4-3.8,3.4-5.7,2-3.9,2.7-8.2,3.1-12.5,1.1-12.6,2.2-25.3,3.4-37.9.6-6.4,1.1-12.7,1.7-19.3-.2.4-.4.6-.5.9-1.6,4.4-3.1,8.8-4.7,13.1-1,2.8-1.1,5.3,2.1,7.2-7.8,1.4-15.2,2.7-22.7,4v-.4c2.5-2.4,2.9-5.1,1.9-8.4-1.2-4-2.1-8.2-3.5-12.2-.1,1.5-.3,3.1-.4,4.6-1.2,16.4-2.4,32.9-3.4,49.4-.2,4,.1,8.1.6,12,.4,3,2,5.5,4.7,7.6-3,.5-5.7,1-8.5,1.5h-.1c-.3,0-.7-.3-.9-.6-6-7.6-12-15.3-18-23-.3-.3-.4-.9-.4-1.3.9-10.4,1.9-20.9,2.8-31.3,1-11.6,1.8-23.2,2.7-34.9.2-3,.4-6,.4-9s-1.2-4.7-3.5-5.5c-.4-.2-.9-.2-1.3-.2-1.3,0-2.4.7-3.4,1.4-.3-1.5.5-2.7,1.9-2.8,9.7-.9,19.4-1.9,29-2.8,1.7-.2,3.4-.3,5.1-.5.8-.1,1.6-.1,2.8-.2-4.2,3.6-3.9,7.7-2.5,12.1,1.2,3.6,2.4,7.2,3.7,10.8.3.4.5.9.9,1.8h0ZM302.59,192.9c-.4,0-1-.3-1.3-.6-2.5-2.8-4-6.2-5.2-9.7-.4-1-.2-2.2-.2-3.3.2-10.2.4-20.5.5-30.7.2-17.1.4-34.1.6-51.2,0-3.3-.3-6.5-1.5-9.5-.7-1.7-1.7-3.2-2.8-4.6-1.1-1.3-2.7-1.8-4.4-2-1.5-.2-3-.5-4.3-1.1-2.1-.9-3.5-3.5-3.3-5.6.3-2.3,2.1-4.5,4.3-5.1.4-.1.8-.2,1.2-.2,1.6,0,3.3.8,4,2.3.3.6.4,1.4.3,2-.4,2.6.4,4,2.8,4h.5c4.4-.3,8.8-.9,13.1-1.6,5.8-.9,11.5-2.1,17.3-2.1,1,0,2.1,0,3.1.1,3.5.3,7,1.1,10.3,2.2,4.5,1.5,7.1,5.1,8.9,9.2,2.1,4.9,2.8,10.1,2.8,15.4.1,8.1.1,16.3-1.7,24.3-.3,1.1-.5,2.3-.9,3.4-1.5,4.3-3.2,8.5-8.1,10.6,3.7,1.3,6.7,3.2,9.5,5.4,5.8,4.7,10.5,10.5,15.1,16.3,6.5,8.2,12.8,16.6,19.6,24.6,7.1,8.3,15.4,15.3,25.5,19.8,4.9,2.2,9.9,3.5,15,3.5,2.2,0,4.4-.2,6.7-.7.2,0,.4-.1.6-.1h0c.1,0,.1.1.3.2-3,4-6.7,6.9-11.4,8.7-3,1.1-6.1,1.7-9.1,1.7-4.3,0-8.5-1-12.6-2.6-8.9-3.5-16.4-9.2-23.5-15.6-9.2-8.3-17-18-24.3-27.9-5.3-7.2-10.9-14.3-17.4-20.5-2.4-2.3-5-4.5-7.7-6.4-1.9-1.3-4.1-2.1-6.4-3.3.2-1.5.5-3.2,2.4-4.4,5.8-3.8,7.9-9.5,8.9-16.1,1.4-9.8.9-19.6.5-29.4-.1-2.5-.3-5.1-.6-7.6-.1-.9-.4-1.8-.8-2.7-1-2.5-2.8-3.5-4.7-3.5-1.1,0-2.3.3-3.3.9-.9.4-1.6,1.7-1.8,2.7-.8,3.9-1.8,7.8-2,11.8-.6,10.7-.9,21.4-1.2,32.1-.3,10.2-.5,20.4-.6,30.6-.1,8.4.5,16.8,2.9,25,.7,2.5,1.8,4.8,2.7,7.3-6.1,1.5-12.2,2.9-18.3,4.3.2-.4.1-.3,0-.3h0ZM239.89,209.7c-.3,0-.5,0-.7-.1-3-.8-5.8-2.1-7.7-4.9-2-3-3.5-6.3-4.4-9.8-.3-1.3.1-2.9.2-4.3,2.1-17.6,4.3-35.2,6.4-52.8,1.3-10.6,2.6-21.2,3.8-31.8.5-4.4.7-8.8-.1-13.2-.4-2-1.1-3.8-1.7-5.9,4.8-.8,9.7-1.8,14.7-2.6,7.8-1.3,15.7-2.5,23.5-3.8.3,0,.5-.1.8-.1,2.8,0,5.6,2.2,6.2,4.7-1.1-.1-2.3-.3-3.5-.3h-.9c-2.7.3-4.4,2.5-4.9,5.8s.1,6.5.8,9.8c4.6,20.9,9.2,41.7,13.9,62.6,2.1,9.2,4.4,18.3,8.7,26.7.7,1.5,1.7,2.9,2.6,4.4-9.5,2.5-19.1,5-28.4,7.4.7-2.5,1.6-5,2.2-7.7.9-4.3.1-8.6-.9-12.8-1.8-8.5-3.6-17.1-5.4-25.6-.1-.3-.2-.5-.4-1.2-4,1.2-8,2.3-12,3.6-.4.1-.7,1.3-.8,2-.5,5-1,9.9-1.4,14.9-.4,6.2-.8,12.5-.9,18.7,0,4.4.6,8.7,3.4,12.6-2.3.7-4.6,1.4-6.9,2-.8.2-1.6.5-2.4.7-1.2.4-2.6,1-3.8,1h0ZM152.49,239.6c-.4,0-.8-.1-1.2-.4-2.8-1.7-4.6-4.2-5.8-7.2-.2-.5-.3-1.1-.2-1.6,4.6-23.9,9.2-47.8,13.8-71.8,2.5-13,4.8-25.9,7.2-38.9.7-3.7,1.2-7.5.4-11.2-.5-2.3-1.5-4.5-2.2-6.8,3.1-.7,6.5-1.5,9.9-2.3,11.8-2.5,23.6-5,35.4-7.5.2,0,.4-.1.6-.1.6,0,1.1.2,1.5.7,2.3,2.5,3.5,5.3,2.5,8.7-.2.8-.5,1.6-.9,2.4v-3.4c0-1.9-.9-3.1-2.8-3.2-.6-.1-1.2-.1-1.7-.1-3.6,0-5.6,1.4-6.3,5.9-.7,4.7.1,9.3,1.2,13.8,6.2,25.5,12.4,51,18.6,76.5.7,3,1.8,6,3,8.9,1.6,4,4,7.4,8.1,9.7-10.7,3.4-21.1,6.8-31.7,10.1,2.5-4.7,2.7-9.9,1.9-14.8-1.2-7.7-3-15.4-4.7-23-1-4.8-2.3-9.5-3.5-14.2-.1-.4-.2-.9-.4-1.4-6.2,1-12.2,2.6-17.9,5.2-.4.2-.8.7-.8,1.1-2.3,12.3-4.6,24.5-6.7,36.9-.8,4.6-.9,9.3.1,13.9.5,2.5,1.4,4.8,4.1,6.1-.5.2-.8.4-1.2.6-6.6,2.4-13.1,4.9-19.7,7.3-.1,0-.4.1-.6.1h0ZM693.39,136.8c.8-5.7,1.6-11.2,2.5-17.2,2.4,4,4.5,7.7,6.7,11.4-3,1.9-6,3.8-9.2,5.8h0ZM400.29,296.2c-.1-.1-.1-.3-.2-.4.3-.3.7-.5,1-.8,16.6-11.6,33.2-23.2,49.8-34.7,2.3-1.6,2.8-2.6,1.9-5.4-1.2-3.5-2.6-6.9-3.9-10.4-.7-1.9-1.4-3.9-1.8-5.9-.9-4.2.8-7.6,4-10.2,3.2-2.6,6.6-4.8,9.9-7.1,31.1-21.9,62.1-43.8,93.2-65.7.5-.4,1-.5,1.5-.5.3,0,.6.1,1,.2,6.1,2.1,11.4,5.3,15.3,10.6,3.9,5.4,5.3,11.5,4.9,18.1-.1,1.1-.5,1.9-1.5,2.7-22.3,15.9-44.6,31.8-66.8,47.9-20.6,14.9-41,30-61.7,44.8-10,7.1-20.4,13.7-30.6,20.5-.3.2-.6.2-1,.4,0-.1-.1-.2-.1-.3,9.4-6.2,18.9-12.4,28.3-18.6-.1-.2-.2-.3-.3-.5-.3.1-.6.2-.9.4-2.6,1.5-5.1,3.1-7.8,4.6-1.9,1.1-3.9,1.9-5.8,2.9-.4.2-.8.5-1.1.8-1.9,2.3-4,4.2-7.2,4.5-.6,0-1.2.9-1.7,1.5-.6.8-1.2,1.1-2,1.1-.2,0-.4,0-.7-.1-1.3-.2-2.6-.4-3.9-.4h-1.4c-1,0-1.1-.2-1-1.6v-.6c-1-1.6.1-2.4,1.1-3.4.7-.7,1.2-1.4,1.7-2.3-.4.3-.8.5-1.2.8-3.3,2.2-6.6,4.5-9.9,6.7-.2.1-.6.3-1.1.4h0ZM662.49,195.6c-1.7-1.4-3.2-2.7-4.7-4-3.8-3.2-7.6-6.6-11.5-9.7-1.5-1.2-1.4-2.8-1.9-4.7,2.6,2.2,5,4.2,7.4,6.2,3.3,2.8,6.5,5.6,9.8,8.3,1.1,1,1,2.2.9,3.9h0ZM460.79,217.9c-4-3.4-8-6.8-12.2-10.4,11-1.4,21.8-2.8,32.5-4.2,0,.1.1.2.1.3-6.8,4.7-13.6,9.5-20.4,14.3h0ZM692.79,257.6c-1.2,0-2.4-.1-3.7-.2-4.7-.4-9.5-.3-14-1.9-3.7-1.3-7.4-2.8-11.1-4.3-.5-.2-1-.8-1.3-1.3-2.6-5.2-4.2-10.7-4.2-16.6,0-2.6.2-5.2.3-7.9,0-.3.3-.9.6-1,3.4-1,5.7-3.3,7.8-6.1,1.2,2.5,2.3,5.1,3.5,7.5,4.4,8.5,10.4,15.5,18,21.4,2.5,1.9,4.5,4.4,6.7,6.6,1,1,1.9,2,3,3.2-2,.4-3.9.6-5.6.6h0ZM221.49,256.5c-.4-.2-.7-.4-1-.6-2.2-1.9-4.5-3.7-6.6-5.7-.4-.4-.9-1-.9-1.5-.1-2.3,0-4.6,0-7.1,3.9,3.2,7.5,6.2,11.2,9.2-.9,1.9-1.8,3.7-2.7,5.7h0ZM237.19,279c-3.3-.6-6.6-1.2-10-1.8v-.6h.1c.3,0,.6.3.8.4,3.1.8,6.1,1,9.1,2h0ZM354.79,308c-3.5,0-7-.2-10.5-.5-5.7-.4-11.4-1-17.1-1.5-6.1-.6-12.2-1.3-18.3-2.1-7.2-.9-14.4-1.9-21.6-3-20.5-3.2-40.7-7.8-59.4-17.2-.5-.2-.9-.5-1.4-.7-1-.4-1.3-1-.8-1.8,13.7,2.2,27.1,4.4,40.6,6.4,10.3,1.5,20.7,2.8,31.1,4.1,9.2,1.2,18.4,2.4,27.7,3.3,8.5.8,17,1.4,25.6,1.8,7.5.4,15.1.5,22.7.7,1.4,0,2.4,1.5,1.5,2.7-1.1,1.4-2.3,2.8-3.8,3.8-3.7,2.4-8,3.7-12.3,3.9-1.4.1-2.7.1-4,.1h0ZM390.99,295.8h0c-10.9-.2-21.8-.3-32.7-.7-8.4-.3-16.8-.7-25.2-1.3-7.2-.6-14.4-1.6-21.5-2.4-4.5-.5-8.9-1-13.4-1.6v-.5c31.6,4,63.4,4.6,95.2,5.2,0,.2.1.4.1.6-.8.3-1.6.7-2.5.7h0ZM367.59,328c2.1-1.4,4.1-2.8,6.2-4.2.2-.1.4-.3.6-.3,2.4-.1,4.4-1.1,6.3-2.4.1.1.1.2.2.3-1.5,1.8-2.9,3.8-4.6,5.4-2.3,2.2-3.2,4.7-2.6,7.9.2,1.2-.6,1.9-2.2,1.9h-.2c-2.5-.1-5.8-2.7-6.3-5.2-.1-.5,0-1.2.3-1.6,2.3-2.7,4.6-5.4,7-8.1,0,0,.1-.1.2-.1s.3,0,.5.1c-1.8,2.1-3.6,4.2-5.4,6.3h0Z"/>
    </g>
    <path d="M209.09,299.6c-1.2-.2-2.4-.4-3.7-.5,5.3,2.8,10.6,5.5,16.8,4.5,1-.2,2.2,0,3.2.4,6.5,2.8,13.4,3.9,20.2,5.5,1,.2,2,.4,3,.8-2-.3-4.1-.6-6.1-.9-8.2-1.3-16.4-2.5-24.6-3.9-7.7-1.3-15.4-2.7-23.1-4-7.6-1.4-15.2-2.5-22.7-4.2-4.8-1.1-9.4-3-14.2-4.5-.3-.1-.5-.3-1-.6,3-1.2,5.9-2.4,8.8-3.5.4-.1.9,0,1.3.1,12.2,4.3,24.7,7.4,37.3,9.8,1.6.3,3.1.6,4.7.9.1-.1.1,0,.1.1Z"/>
    <path d="M185.99,288.9c-4.3-1-8.7-2-13-3,0-.2.1-.4.1-.6,4.3,1.1,8.7,2.2,13,3.2-.1.2-.1.3-.1.4Z"/>
    <path class="st0" d="M147.39,241.5c-10.9,4.4-21.7,8.8-32.5,13.1,0-.1-.2-.2-.1-.2,3.7-8.4,5.3-17.3,5.7-26.4.3-5.9.3-11.8.4-17.8v-7c-4.5,1.1-8.6.8-12.3-2.3,1.8-.8,3.7-1.4,5.3-2.2,2.4-1.3,4.5-3,4.8-5.9.1-1.6-.2-3.5-.8-5-2.2-4.7-6-7.9-10.5-10.2-6.4-3.3-13.3-4.6-20.4-4.8-2.1-.1-4.2,0-6.3,0-.9,0-1.3.3-1.3,1.3-.2,6.2-.4,12.5-.7,18.7-.5,13.7-1.1,27.4-1.6,41.1-.2,5.4-.4,10.9-.2,16.3.1,3.1.9,6.3,1.7,9.4.9,3.4,2.7,6.3,5.9,8.4-.9.4-1.6.8-2.4,1.1-12.7,6.2-25.4,12.3-38,18.5-1,.5-1.7.5-2.7-.1-14.8-8.7-25.8-20.7-31.3-37.3-4.4-13.4-4.1-26.9-.1-40.4,6.2-21.1,18.5-37.4,37.9-48,3.6-2,7.5-3.4,11.4-5.2.4-8.2.8-16.6,1.2-25,.7-14.6,1.3-29.2,2-43.8.2-3.3-1.3-5.8-3.6-7.9-1.4-1.3-3-2.2-4.5-3.3-3-2.1-6.1-4.1-8.9-6.4-2.6-2.2-3.7-5.3-3.8-9.1.6.4,1.2.5,1.4.9,1.6,3.5,4.6,5,8.3,5.6,4.6.7,9.1-.5,13.5-1.6,8.9-2.2,17.9-4.4,27.1-6.7-.1.6-.1,1.1-.3,1.3-3.3,2.2-4.5,5.8-5.7,9.3-2,6.1-3,12.4-3.3,18.8-.6,12.2-1,24.5-1.5,36.8-.3,8.9-.7,17.7-1,26.6v1.1c14.6-.5,28.3,2.6,41.3,9.8,0-1,.1-1.9.1-2.8.1-11.3.2-22.6.3-33.8.1-4.7-.6-9.2-3.7-13.3,10.2-2.6,20.2-5.2,30.6-7.8-.6.8-.9,1.3-1.3,1.8-3.3,4.7-5,10-6.2,15.5-1.8,8.2-2,16.5-2,24.8,0,17.7-.1,35.5-.1,53.2,0,7.1-.1,14.2.2,21.3.2,5.7,1.6,11.3,4.9,16.1.8,1.2,2,2.3,3.1,3.5ZM58.29,178.3c-.6.2-1,.4-1.3.5-8.8,4.2-16.1,10.2-22.2,17.6-12.5,15.1-18.5,32-14.3,51.8,1.5,6.9,3.6,13.5,8,19.2,5.5,7.1,12.8,9.7,21.5,8.3,1-.2,1.5-.5,1.6-1.6.9-8.2,1.9-16.3,2.6-24.5.8-9.5,1.3-19.1,1.9-28.7.6-10.9,1.1-21.8,1.7-32.6.2-3.3.4-6.6.5-10Z"/>
    <path class="st0" d="M780.49,148.9c-2.5-2.2-4.9-4.5-7.4-6.7-7.2-6.6-15.6-10.5-25.1-12.4-3.3-.7-6.6-.8-9.9-1.1-.6-.1-1.2,0-2.1,0,.5.7.7,1.1,1,1.5,7.2,9.7,14.2,19.4,20.1,29.9,4.3,7.7,8,15.7,10.6,24.2,3.9,12.8,2.7,25.1-3,37-7.5,15.7-19.2,27.6-33.8,36.8-12.6,7.9-26.4,12.3-41.3,11.8-24.4-.8-45.1-9.8-60.8-28.9-10.8-13.1-14.7-28.5-12.4-45.3.6-4.4,1.9-8.7,3.1-13,.8-2.8,2.5-5,5-6.6,3.1-1.9,6.1-.6,6.8,2.9,1,4.6-1.6,10.8-5.6,13.3-1.7,1.1-2.8,1.2-5.1.6-3.4,17,.3,32.1,12.3,45,6.5,7,14.4,12.1,23,16.2,6.1,2.9,12.2,5.6,18.8,7.1,14.9,3.3,28.9,1.3,42.2-6.2.3-.2.5-.3,1.1-.7-1.3-.3-2.3-.4-3.4-.7-25.1-5.9-40.1-21.8-45.9-46.6-2.2-9.6-2.5-19.4,0-29,2.6-10.1,7.8-18.8,14.9-26.4,6.9-7.5,14.9-13.4,24-18,.5-.3,1.1-.6,1.6-.8-3-5.2-6.1-10.2-9-15.4-4.3-7.5-7.9-15.3-10-23.8-1.2-5.1-.2-10,1.8-14.7,2.3-5.4,6.2-9.2,11.5-11.6,7.8-3.5,16.1-4.7,24.2-2.8,10.4,2.4,18.3,8.6,22.3,18.9,2.6,6.6.2,12.4-4.5,17.2-2.4,2.5-5.4,2.6-8.1.3-1.3-1.1-2.4-2.5-3.8-3.9,1.8-.2,2.2-1.4,2.4-2.5,1.5-7.8-.1-14.8-6.4-20.2-2-1.7-4.2-3-6.3-4.6-1-.8-2-.6-3,0-5.1,3.3-8,7.8-8.6,13.9-.5,5.5,1.4,10.4,4,15.2,5.1,9.4,11.3,18.1,17.6,26.7.3.4.9.6,1.4.6,18.8,0,33.8,7.7,45.4,22.2.1.1.1.2.1.4.4.1.3.1.3.2ZM720.79,149.5c-3.2-4.6-6.4-9.3-9.6-14-12.2,6.7-22,15.9-28.7,28-6,10.9-8,22.6-7,34.8.9,11.1,5.1,20.7,13.4,28.3,13.9,12.8,33.2,15.2,49.3,6,.9-.5,1.7-1.4,2.2-2.4,3.2-6.6,4.6-13.6,4.9-21,.4-11.5-2.2-22.2-8.5-32-5.7-8.9-12.8-16.4-20.9-23.2-.7-.6-1.4-1.2-2.4-2,2.6-.7,4.9-1.6,7.3-2.5Z"/>
    <path class="st0" d="M663.29,165.5c-10.2-.8-20.2-1.6-30.3-2.3,1.5-6.6-.2-12.7-2.7-18.6-3.4-8.2-7.1-16.2-10.6-24.4-3.2-7.6-6.3-15.2-9.5-22.8-.1-.3-.2-.5-.5-1.1-.2.7-.3,1.1-.3,1.5-1.4,14.1-2.9,28.2-4.2,42.4-.6,6.9.4,13.6,2.5,20.2.1.4.3.9.4,1.2h-8.9c-4-.1-8.1-.2-12.1-.3-.8,0-1.2-.3-1.6-1-1.5-2.6-2.1-5.3-1.7-8.3.9-8.4,1.9-16.8,2.8-25.2.9-8.2,1.6-16.5,2.5-24.7,1.1-10.4,1.6-20.8,4.5-30.9.8-2.8,1.5-5.5,3.4-7.8.3-.4,1-.8,1.4-.8,7,.4,14.1.9,21.1,1.4.2,0,.4.1.7.1-.7,6.6,2,12.5,4.4,18.3,6.3,14.7,12.7,29.4,19.1,44,.2.4.4.8.8,1.6.5-3.8.9-7.2,1.3-10.6,1.2-9.9,2.4-19.9,3.6-29.8,1.2-9.8,2.3-19.6,3.5-29.4.6-4.7,1.3-9.4,1.5-14.1.1-2.7-.6-5.5-1.2-8.1-.5-2.1-1.9-3.6-3.7-4.8-1-.6-1.9-1.4-2.7-2.3-.6-.6-.9-1.4,0-2.1.8,3.2,3.5,3.2,5.9,3.5,4.2.6,8.2-.4,12.2-1.5,6.4-1.6,12.9-3.1,19.3-4.5,2.2-.5,4.5-.4,6.7-.4,1.4,0,2.8.3,3.7,1.9h-.8c-3.7-.9-6.7.5-9.1,3.2-3.4,3.7-5.2,8.3-6.2,13.1-1.4,6.7-2.6,13.6-3.7,20.4-2.2,14.2-4.4,28.5-6.4,42.8-2.1,15-4.1,30.1-5.9,45.1-.6,4.9-.4,9.9.8,15.1Z"/>
    <path class="st0" d="M403.89,172.7c1.2-1.9,2.4-3.8,3.4-5.7,2-3.9,2.7-8.2,3.1-12.5,1.1-12.6,2.2-25.3,3.4-37.9.6-6.4,1.1-12.7,1.7-19.3-.2.4-.4.6-.5.9-1.6,4.4-3.1,8.8-4.7,13.1-1,2.8-1.1,5.3,2.1,7.2-7.8,1.4-15.2,2.7-22.7,4v-.4c2.5-2.4,2.9-5.1,1.9-8.4-1.2-4-2.1-8.2-3.5-12.2-.1,1.5-.3,3.1-.4,4.6-1.2,16.4-2.4,32.9-3.4,49.4-.2,4,.1,8.1.6,12,.4,3,2,5.5,4.7,7.6-3,.5-5.7,1-8.5,1.5-.3,0-.8-.3-1-.6-6-7.6-12-15.3-18-23-.3-.3-.4-.9-.4-1.3.9-10.4,1.9-20.9,2.8-31.3,1-11.6,1.8-23.2,2.7-34.9.2-3,.4-6,.4-9s-1.2-4.7-3.5-5.5c-1.8-.6-3.3.2-4.7,1.2-.3-1.5.5-2.7,1.9-2.8,9.7-.9,19.4-1.9,29-2.8,1.7-.2,3.4-.3,5.1-.5.8-.1,1.6-.1,2.8-.2-4.2,3.6-3.9,7.7-2.5,12.1,1.2,3.6,2.4,7.2,3.7,10.8.2.5.4.9.8,1.8,1.7-4.4,3.2-8.5,4.7-12.6.5-1.4.8-3,1.1-4.5.5-3,0-5.6-3-7.5.5-.1.7-.2.9-.2,12.7-.5,25.3-1.1,38-1.6,3.7-.2,6.7,2.2,6.9,5.4-.7-.5-1.4-1.1-2.1-1.5-2.3-1.4-4.2-.9-5.6,1.5-1.5,2.7-1.9,5.7-2.2,8.7-1.4,17.3-2.9,34.6-4.1,51.8-.6,8.4-1,16.8-1.2,25.2-.1,4.7,1,9.2,5,12.7-11.7,1.5-23.3,3.1-34.7,4.7Z"/>
    <path class="st0" d="M164.39,101.6c3.1-.7,6.5-1.5,9.9-2.3l35.4-7.5c.9-.2,1.6,0,2.1.6,2.3,2.5,3.5,5.3,2.5,8.7-.2.8-.5,1.6-.9,2.4v-3.4c0-1.9-.9-3.1-2.8-3.2-4.6-.4-7.2.6-8,5.9-.7,4.7.1,9.3,1.2,13.8,6.2,25.5,12.4,51,18.6,76.5.7,3,1.8,6,3,8.9,1.6,4,4,7.4,8.1,9.7-10.7,3.4-21.1,6.8-31.7,10.1,2.5-4.7,2.7-9.9,1.9-14.8-1.2-7.7-3-15.4-4.7-23-1-4.8-2.3-9.5-3.5-14.2-.1-.4-.2-.9-.4-1.4-6.2,1-12.2,2.6-17.9,5.2-.4.2-.8.7-.8,1.1-2.3,12.3-4.6,24.5-6.7,36.9-.8,4.6-.9,9.3.1,13.9.5,2.5,1.4,4.8,4.1,6.1-.5.2-.8.4-1.2.6-6.6,2.4-13.1,4.9-19.7,7.3-.8.3-1.3.2-2.1-.2-2.8-1.7-4.6-4.2-5.8-7.2-.2-.5-.3-1.1-.2-1.6,4.6-23.9,9.2-47.8,13.8-71.8,2.5-13,4.8-25.9,7.2-38.9.7-3.7,1.2-7.5.4-11.2-.1-2.5-1.1-4.7-1.9-7ZM185.49,129.4h-.3c-1.3,7.2-2.7,14.4-4.1,21.7,3.3-.8,6.2-1.5,9.3-2.3-1.6-6.6-3.3-13-4.9-19.4Z"/>
    <path class="st0" d="M321.19,188.5c-6.1,1.5-12.2,2.9-18.3,4.3-.4.1-1.2-.2-1.5-.5-2.5-2.8-4-6.2-5.2-9.7-.4-1-.2-2.2-.2-3.3.2-10.2.4-20.5.5-30.7.2-17.1.4-34.1.6-51.2,0-3.3-.3-6.5-1.5-9.5-.7-1.7-1.7-3.2-2.8-4.6-1.1-1.3-2.7-1.8-4.4-2-1.5-.2-3-.5-4.3-1.1-2.1-.9-3.5-3.5-3.3-5.6.3-2.3,2.1-4.5,4.3-5.1,2-.5,4.3.3,5.2,2.1.3.6.4,1.3.3,2-.5,2.8.5,4.2,3.3,4,4.4-.3,8.8-.9,13.1-1.6,6.8-1,13.5-2.6,20.4-2,3.5.3,7,1.1,10.3,2.2,4.5,1.5,7.1,5.1,8.9,9.2,2.1,4.9,2.8,10.1,2.8,15.4.1,8.1.1,16.3-1.7,24.3-.3,1.1-.5,2.3-.9,3.4-1.5,4.3-3.2,8.5-8.1,10.6,3.7,1.3,6.7,3.2,9.5,5.4,5.8,4.7,10.5,10.5,15.1,16.3,6.5,8.2,12.8,16.6,19.6,24.6,7.1,8.3,15.4,15.3,25.5,19.8,6.9,3.1,14.1,4.4,21.7,2.7.2,0,.4-.1.6-.1.1,0,.2.1.3.2-3,4-6.7,6.9-11.4,8.7-7.4,2.8-14.6,1.8-21.7-1-8.9-3.5-16.4-9.2-23.5-15.6-9.2-8.3-17-18-24.3-27.9-5.3-7.2-10.9-14.3-17.4-20.5-2.4-2.3-5-4.5-7.7-6.4-1.9-1.3-4.1-2.1-6.4-3.3.2-1.5.5-3.2,2.4-4.4,5.8-3.8,7.9-9.5,8.9-16.1,1.4-9.8.9-19.6.5-29.4-.1-2.5-.3-5.1-.6-7.6-.1-.9-.4-1.8-.8-2.7-1.6-4-5.2-4.1-8-2.6-.9.4-1.6,1.7-1.8,2.7-.8,3.9-1.8,7.8-2,11.8-.6,10.7-.9,21.4-1.2,32.1-.3,10.2-.5,20.4-.6,30.6-.1,8.4.5,16.8,2.9,25,.9,2.2,1.9,4.6,2.9,7.1Z"/>
    <path class="st0" d="M548.69,157.3c2.7-7.5,1.5-14.4-.9-21.2-3.8-10.7-7.8-21.3-11.8-32-.1-.3-.3-.6-.6-1.2-.4,4.2-.8,8.1-1.1,12-.7,8.6-1.5,17.1-2.1,25.7-.2,3.3-.2,6.6-.1,9.9.1,3.9,1.1,6.3,4,10.7h-6.1c-4.2.1-8.5.3-12.7.4-.5,0-1.2-.4-1.4-.7-1.7-3.9-3.2-7.8-4.8-11.7-.2-.4-.1-1,0-1.5,2.2-9.4,3.2-19,4.2-28.6,1-10.2,2.1-20.4,3-30.6.5-5.7.8-11.3.9-17,0-1.8-.6-3.6-1.2-5.3-.6-1.7-2.6-2.4-4.4-1.9-1.5.4-2.3,1.8-2.3,3.6,0,1.5.9,2.2,2.3,2.5-1.9,1.1-3.3.8-4.3-.9-1.2-2-1.1-3.9,0-5.9,1.2-1.9,2.7-3.4,5.1-3.4,10.8.1,21.6.1,32.4.2.3,0,.6,0,.9.1-.2,1.9-.6,3.8-.7,5.7-.1,4.6.7,9.1,2.1,13.4,2.8,8.5,5.7,17,8.6,25.5.7,2.2,1.5,4.3,2.5,6.5.4-3.2.8-6.3,1.1-9.5,1.1-9.4,2.1-18.9,3.2-28.3.5-4.5.2-7.9-1.8-13.1,9.1.4,18,.7,27.1,1.1-4,8.5-5.3,17.5-6.4,26.5-1.8,14.5-3.3,29.1-4.8,43.7-.7,6.7-1.2,13.5-1.7,20.2-.2,2.8.3,5.6,1.6,8.4h-8.9c-.4,0-.8-.3-1.1-.6-3.8-3.3-8.2-5.5-12.9-6.9-.5-.1-1.2,0-1.6.3-1.5,1.1-3.2,2.4-5.3,3.9Z"/>
    <path class="st0" d="M415.29,299.7c9.4-6.2,18.9-12.4,28.3-18.6-.1-.2-.2-.3-.3-.5-.3.1-.6.2-.9.4-2.6,1.5-5.1,3.1-7.8,4.6-1.9,1.1-3.9,1.9-5.8,2.9-.4.2-.8.5-1.1.8-1.9,2.3-4,4.2-7.2,4.5-.6,0-1.2.9-1.7,1.5-.7,1-1.5,1.2-2.7,1-1.5-.2-3-.4-4.5-.3-1.8.1-1.9.1-1.8-1.6v-.6c-1-1.6.1-2.4,1.1-3.4.7-.7,1.2-1.4,1.7-2.3-.4.3-.8.5-1.2.8-3.3,2.2-6.6,4.5-9.9,6.7-.4.3-.9.4-1.3.5-.1-.1-.1-.3-.2-.4.3-.3.7-.5,1-.8,16.6-11.6,33.2-23.2,49.8-34.7,2.3-1.6,2.8-2.6,1.9-5.4-1.2-3.5-2.6-6.9-3.9-10.4-.7-1.9-1.4-3.9-1.8-5.9-.9-4.2.8-7.6,4-10.2,3.2-2.6,6.6-4.8,9.9-7.1,31.1-21.9,62.1-43.8,93.2-65.7.8-.6,1.5-.7,2.4-.4,6.1,2.1,11.4,5.3,15.3,10.6,3.9,5.4,5.3,11.5,4.9,18.1-.1,1.1-.5,1.9-1.5,2.7-22.3,15.9-44.6,31.8-66.8,47.9-20.6,14.9-41,30-61.7,44.8-10,7.1-20.4,13.7-30.6,20.5-.3.2-.6.2-1,.4.3-.1.2-.3.2-.4ZM449.79,231.5c0,.2-.1.3-.1.4,4.4,6,8.7,12,13.1,18,1.8,2.5,4.4,2.5,7,2,3.6-.7,6.6-2.7,9.5-4.7,6.9-4.9,13.7-9.8,20.6-14.8,23.7-17.3,47.3-34.6,71-51.9.3-.2.5-.5.8-.7-.3,0-.5.1-.7.2-7.6,4.9-15.2,9.8-22.9,14.7-1,.7-2.1,1.4-3.2,1.7-4,1-7,3.6-9.6,6.6s-5.6,5.2-9.5,6.1c-.5.1-1,.3-1.4.6-1.8,1.2-3.5,2.5-5.3,3.6-2.5,1.6-4.7,3.4-5.8,6.3-.4,1-1.3,1.8-2.2,2.4-2.3,1.4-4.9,2.1-7.6,2.3-1.1.1-2.4-.1-3.4-.5-1.2-.5-2-.2-3,.5-2.4,1.8-4.9,3.4-7.3,5.2-.8.6-1.6,1.5-1.8,2.3-.3,2.3-1.8,3.4-4.2,3.2-2.1-.2-4.1.2-5.9,1-1.9.9-3.8,2.1-5.7,3.1-2.8,1.5-5.6,2.4-8.8.8-1.6-.8-2.5-2.2-3.9-3.1-3-1.9-6.4-3.5-9.7-5.3ZM527.09,185.3l.2.2c3.4-2.4,6.8-4.7,10.2-7.1,5.3-3.7,10.7-7.3,16-11,.5-.4,1.1-.6,1.7-.9,1.1-.5,2.2-1,3.3-1.5,1.4-.7,2.7-1.3,4.4-.3,2.1,1.1,4.5.9,7,.5-.3-.4-.5-.7-.7-.9-3.1-3.2-6.8-5.5-10.7-7.5-1.2-.6-2.6-.5-4,.4-4.9,3.5-9.9,6.8-14.9,10.2-2.2,1.5-4.5,3.1-6.7,4.6.7-.1,1.3-.4,1.8-.7,3.5-2,7.1-4.1,10.6-6.1,1.8-1,3.6-2.1,5.4-3,1.1-.5,2.2-.9,3.4-1.3.1.2.1.3.2.5-.5,1.6-1.3,3-2.8,3.8-1.8,1-3.6,1.9-5.3,2.8-1.4.7-2.2,1.7-2.6,3.3-.3,1.5-1.2,2.7-2.9,3.1-.8.2-1.7.5-2.4,1.1-3.7,3.2-7.5,6.5-11.2,9.8Z"/>
    <path class="st0" d="M235.69,86.8c4.8-.8,9.7-1.8,14.7-2.6,7.8-1.3,15.7-2.5,23.5-3.8,3-.5,6.3,1.8,7,4.6-1.4-.1-2.9-.4-4.4-.2-2.7.3-4.4,2.5-4.9,5.8s.1,6.5.8,9.8c4.6,20.9,9.2,41.7,13.9,62.6,2.1,9.2,4.4,18.3,8.7,26.7.7,1.5,1.7,2.9,2.6,4.4-9.5,2.5-19.1,5-28.4,7.4.7-2.5,1.6-5,2.2-7.7.9-4.3.1-8.6-.9-12.8-1.8-8.5-3.6-17.1-5.4-25.6-.1-.3-.2-.5-.4-1.2-4,1.2-8,2.3-12,3.6-.4.1-.7,1.3-.8,2-.5,5-1,9.9-1.4,14.9-.4,6.2-.8,12.5-.9,18.7,0,4.4.6,8.7,3.4,12.6-2.3.7-4.6,1.4-6.9,2-.8.2-1.6.5-2.4.7-1.5.3-3.2,1.1-4.6.8-3-.8-5.8-2.1-7.7-4.9-2-3-3.5-6.3-4.4-9.8-.3-1.3.1-2.9.2-4.3,2.1-17.6,4.3-35.2,6.4-52.8,1.3-10.6,2.6-21.2,3.8-31.8.5-4.4.7-8.8-.1-13.2-.2-1.9-1-3.8-1.6-5.9ZM260.99,136.1c-1.6-7.3-3.1-14.5-4.6-21.7h-.2c-.7,7.7-1.4,15.5-2.2,23.3,2.4-.6,4.7-1.1,7-1.6Z"/>
    <path class="st0" d="M451.79,64.3c3.6-.2,6.7-.5,9.9-.6,9.1-.3,18.2-.7,27.3-.9,2,0,4,.5,5.9,1.1,1.7.6,2.8,1.9,3.3,3.7-1.1-.3-2.1-.8-3.2-.9-1.6-.2-2.6.5-2.7,2.2-.2,2.5-.2,5,.1,7.4,1.6,10.2,3.2,20.4,5.3,30.5,2.5,12.6,5.3,25.1,8.1,37.6,1.3,5.8,3.1,11.5,5.8,16.9.1.1,0,.3.1.5-9.9.6-19.8,1.3-29.9,1.9,3.8-5.1,3.3-10.7,2.7-16.3-1-9.5-2.4-18.9-3.6-28.4,0-.1-.1-.3-.2-.7-2.2.2-4.4.3-6.6.5-2,.2-4,.7-6,1-.8.1-1.1.5-1.3,1.2-1.7,9.6-3.4,19.1-4.9,28.7-.6,4-.6,8.2.6,12.2.3,1.1.8,2.1,1.3,3.3-2.1.2-4.2.4-6.3.7-4,.4-7.9.9-11.9,1.2-.7.1-1.5-.2-2.2-.6-2.4-1.5-4.6-3.2-5.2-6.2-.1-.5-.2-1.1,0-1.5,2.5-5.4,3.5-11.3,4.8-17.1,4-17.5,8.1-35,12-52.4,1.3-5.7,2-11.4.9-17.2-.4-2.8-1.6-5.4-4.1-7.8ZM478.49,100.6c-1.1-7.7-2.1-15.1-3.2-22.6h-.3c-1.4,7.7-2.9,15.5-4.4,23.3,2.9-.2,5.3-.4,7.9-.7Z"/>
    <path class="st0" d="M225.79,281.2c13.7,2.2,27.1,4.4,40.6,6.4,10.3,1.5,20.7,2.8,31.1,4.1,9.2,1.2,18.4,2.4,27.7,3.3,8.5.8,17,1.4,25.6,1.8,7.5.4,15.1.5,22.7.7,1.4,0,2.4,1.5,1.5,2.7-1.1,1.4-2.3,2.8-3.8,3.8-3.7,2.4-8,3.7-12.3,3.9-4.8.3-9.6,0-14.3-.3-5.7-.4-11.4-1-17.1-1.5-6.1-.6-12.2-1.3-18.3-2.1-7.2-.9-14.4-1.9-21.6-3-20.5-3.2-40.7-7.8-59.4-17.2-.5-.2-.9-.5-1.4-.7-1.3-.5-1.5-1.1-1-1.9ZM319.19,302.8c-.8-.5-1.3-1-1.7-1-.4.1-.8.7-1.2,1.1.4.4.8,1,1.3,1.1.3.1.8-.6,1.6-1.2ZM267.49,294.6c-.9-.5-1.4-1-1.9-1-.4,0-.7.8-1.1,1.2.4.4.9,1,1.4,1.1.4,0,.9-.7,1.6-1.3ZM358.69,305.9c-.8-.5-1.2-1.1-1.7-1.1-.4,0-1.1.8-1.1,1.1.1.5.7,1.1,1.1,1.2.5,0,1-.7,1.7-1.2Z"/>
    <path class="st0" d="M698.19,257c-3.2.7-6.2.7-9.1.4-4.7-.4-9.5-.3-14-1.9-3.7-1.3-7.4-2.8-11.1-4.3-.5-.2-1-.8-1.3-1.3-2.6-5.2-4.2-10.7-4.2-16.6,0-2.6.2-5.2.3-7.9,0-.3.3-.9.6-1,3.4-1,5.7-3.3,7.8-6.1,1.2,2.5,2.3,5.1,3.5,7.5,4.4,8.5,10.4,15.5,18,21.4,2.5,1.9,4.5,4.4,6.7,6.6.8,1,1.8,2.1,2.8,3.2Z"/>
    <path class="st0" d="M705.19,49.7c-3.4.8-6.1,2.1-8.6,4-6.2,4.6-10.5,10.7-14,17.4-.2.4-.4.8-.6,1.1,0,.1-.1.1-.4.4-1.7-10,1.6-18.6,6-27.1,4.4,2.8,9.3,3.1,14.2,3.7,1.4.2,2.9.2,4.4.3,1.1,0,2.2.3,2.4,1.5.1.6-.4,1.5-.9,1.9-.9.7-1.9.4-2.7-.4-1-.8-.7-1.7.2-2.8Z"/>
    <path class="st0" d="M298.19,289.4c31.6,4,63.4,4.6,95.2,5.2,0,.2.1.4.1.6-.8.2-1.7.6-2.5.6-10.9-.2-21.8-.3-32.7-.7-8.4-.3-16.8-.7-25.2-1.3-7.2-.6-14.4-1.6-21.5-2.4-4.5-.5-8.9-1-13.4-1.6,0-.1,0-.2,0-.4Z"/>
    <path class="st0" d="M367.59,328c2.1-1.4,4.1-2.8,6.2-4.2.2-.1.4-.3.6-.3,2.4-.1,4.4-1.1,6.3-2.4.1.1.1.2.2.3-1.5,1.8-2.9,3.8-4.6,5.4-2.3,2.2-3.2,4.7-2.6,7.9.3,1.3-.7,2-2.4,1.9-2.5-.1-5.8-2.7-6.3-5.2-.1-.5,0-1.2.3-1.6,2.3-2.7,4.6-5.4,7-8.1.1-.1.3-.1.6.1-1.7,2-3.5,4.1-5.3,6.2Z"/>
    <path class="st0" d="M212.99,241.6c3.9,3.2,7.5,6.2,11.2,9.2-.9,1.9-1.7,3.8-2.7,5.8-.4-.2-.7-.4-1-.6-2.2-1.9-4.5-3.7-6.6-5.7-.4-.4-.9-1-.9-1.5-.1-2.4,0-4.6,0-7.2Z"/>
    <path class="st0" d="M695.89,119.6c2.4,4,4.5,7.7,6.7,11.4-3,1.9-6,3.8-9.2,5.8.9-5.7,1.7-11.3,2.5-17.2Z"/>
    <path class="st0" d="M662.49,195.6c-1.7-1.4-3.2-2.7-4.7-4-3.8-3.2-7.6-6.6-11.5-9.7-1.5-1.2-1.4-2.8-1.9-4.7,2.6,2.2,5,4.2,7.4,6.2,3.3,2.8,6.5,5.6,9.8,8.3,1.1,1,1,2.2.9,3.9Z"/>
    <path d="M58.29,178.3c-.2,3.5-.3,6.7-.5,10-.6,10.9-1.1,21.8-1.7,32.6-.5,9.6-1.1,19.1-1.9,28.7-.7,8.2-1.8,16.3-2.6,24.5-.1,1.1-.6,1.5-1.6,1.6-8.8,1.4-16.1-1.2-21.5-8.3-4.4-5.7-6.5-12.3-8-19.2-4.2-19.8,1.8-36.7,14.3-51.8,6.2-7.4,13.5-13.5,22.2-17.6.4-.2.8-.3,1.3-.5Z"/>
    <path d="M720.79,149.5c-2.4.9-4.7,1.7-7.4,2.7,1,.8,1.7,1.4,2.4,2,8.1,6.7,15.1,14.3,20.9,23.2,6.3,9.8,8.9,20.5,8.5,32-.3,7.3-1.7,14.3-4.9,21-.4.9-1.3,1.9-2.2,2.4-16.1,9.2-35.4,6.8-49.3-6-8.3-7.7-12.5-17.2-13.4-28.3-1-12.3,1-24,7-34.8,6.8-12.1,16.5-21.3,28.7-28,3.3,4.5,6.5,9.2,9.7,13.8ZM715.49,233.5c7,.3,13.4-1.1,19.4-4.5.6-.3,1.2-1,1.4-1.6,2.2-4.8,3.5-9.9,3.9-15.2.5-7.9.2-15.8-2.9-23.3-1.6-3.8-3.5-7.3-5.8-10.8-15.7,15.6-20.2,34.1-16,55.4Z"/>
    <path d="M185.49,129.4c1.6,6.4,3.3,12.8,5,19.4-3.1.8-6.1,1.5-9.3,2.3,1.4-7.3,2.7-14.5,4.1-21.7,0,0,.1,0,.2,0Z"/>
    <path d="M449.79,231.5c3.3,1.8,6.6,3.3,9.8,5.3,1.3.8,2.3,2.3,3.9,3.1,3.2,1.6,6,.7,8.8-.8,1.9-1,3.7-2.2,5.7-3.1,1.8-.9,3.8-1.2,5.9-1,2.4.2,3.8-.9,4.2-3.2.1-.9,1-1.8,1.8-2.3,2.4-1.8,4.9-3.5,7.3-5.2.9-.7,1.8-1,3-.5,1.1.4,2.3.6,3.4.5,2.7-.1,5.3-.8,7.6-2.3.9-.6,1.9-1.4,2.2-2.4,1.1-2.9,3.3-4.7,5.8-6.3,1.8-1.1,3.5-2.4,5.3-3.6.4-.3.9-.5,1.4-.6,4-.8,6.9-3.1,9.5-6.1s5.5-5.6,9.6-6.6c1.1-.3,2.2-1,3.2-1.7,7.6-4.9,15.3-9.8,22.9-14.7.2-.1.4-.2.7-.2-.3.2-.5.5-.8.7-23.7,17.3-47.3,34.6-71,51.9-6.8,5-13.7,9.9-20.6,14.8-2.9,2.1-5.9,4-9.5,4.7-2.6.5-5.2.5-7-2-4.4-6-8.7-12-13.1-18-.1,0,0-.1,0-.4Z"/>
    <path d="M527.09,185.3c3.8-3.3,7.5-6.5,11.3-9.7.6-.5,1.5-.9,2.4-1.1,1.7-.4,2.6-1.6,2.9-3.1.3-1.6,1.2-2.6,2.6-3.3,1.8-.9,3.6-1.9,5.3-2.8,1.5-.8,2.4-2.2,2.8-3.8-.1-.2-.1-.3-.2-.5-1.1.4-2.3.7-3.4,1.3-1.8.9-3.6,2-5.4,3-3.5,2-7.1,4.1-10.6,6.1-.6.3-1.1.6-1.8.7,2.2-1.5,4.5-3.1,6.7-4.6,5-3.4,10-6.7,14.9-10.2,1.3-.9,2.7-1.1,4-.4,3.9,2,7.6,4.3,10.7,7.5.2.2.4.5.7.9-2.5.3-4.9.6-7-.5-1.8-1-3-.4-4.4.3-1.1.5-2.2,1-3.3,1.5-.6.3-1.2.5-1.7.9-5.4,3.7-10.7,7.3-16,11-3.4,2.3-6.8,4.7-10.2,7.1-.2-.2-.3-.3-.3-.3Z"/>
    <path d="M260.99,136.1c-2.3.6-4.5,1.1-7,1.7.7-7.9,1.4-15.6,2.2-23.3h.2c1.5,7.1,3,14.2,4.6,21.6Z"/>
    <path d="M478.49,100.6c-2.6.2-5,.5-7.8.7,1.5-7.8,2.9-15.6,4.4-23.3h.3c1,7.5,2,15,3.1,22.6Z"/>
    <path d="M319.19,302.8c-.8.6-1.2,1.2-1.6,1.2-.5-.1-.9-.7-1.3-1.1.4-.4.7-1,1.2-1.1.4,0,.9.5,1.7,1Z"/>
    <path d="M267.49,294.6c-.8.6-1.2,1.3-1.6,1.2-.5-.1-.9-.7-1.4-1.1.4-.4.7-1.1,1.1-1.2.5.1,1.1.6,1.9,1.1Z"/>
    <path d="M358.69,305.9c-.8.6-1.3,1.2-1.6,1.2-.5-.1-1-.7-1.1-1.2-.1-.3.7-1,1.1-1.1.4-.1.8.5,1.6,1.1Z"/>
    <path class="st0" d="M715.49,233.5c-4.2-21.2.3-39.8,15.9-55.3,2.3,3.4,4.2,7,5.8,10.8,3.2,7.5,3.4,15.3,2.9,23.3-.3,5.3-1.7,10.4-3.9,15.2-.3.6-.8,1.2-1.4,1.6-5.9,3.2-12.3,4.7-19.3,4.4Z"/>
  </g>
  <g>
    <path class="st0" d="M461.49,332.5c.7-5.1-2.2-8.5-7.2-9.1,4.7-1.3,8-5.1,8.5-8.9.8-5.8-2.2-9.3-11.6-9.3h-22.1c-.6,0-1,.3-1.1.8s.3.8.9.8h4.7l-4.9,34.7h-4.7c-.6,0-1,.3-1.1.8s.3.8.9.8l23.8.1c8.5-.1,13-4.1,13.9-10.7ZM446.09,306.7h4.9c8.6,0,10.4,3,9.8,7.7-.7,4.7-5.9,8.4-9.8,8.4h-3.2c-.6,0-1.2.3-1.3.9-.1.7.4,1,.9,1h4.4c4.3,0,8.5,1.9,7.7,7.7-.8,5.5-4,9.1-11.7,9h-6.6l4.9-34.7Z"/>
    <path class="st0" d="M478.89,342.3c-.1.5.3.8.9.8h22c.6,0,1-.3,1.1-.8s-.3-.8-.9-.8h-3.5l-9.9-36.4c-.2-.8-.9-1.1-1.5-1.1-.7,0-1.4.3-1.9,1.1l-20.3,36.4h-3.5c-.6,0-1,.3-1.1.8s.3.8.9.8h10.5c.6,0,1-.3,1.1-.8s-.3-.8-.9-.8h-4.9l3.3-5.9h13.8l1.5,5.9h-5.5c-.7,0-1.2.3-1.2.8ZM471.09,334l8.5-15.3,4,15.3h-12.5Z"/>
    <path class="st0" d="M527.49,331.2c-.6,0-1.1.2-1.2.9-.1.7.4.9.9.9,2.8,0,4.4,1.3,5.8,3.3l2.2,3.3c1.7,2.6,3.6,3.8,7,3.8,1.2,0,1.7-.3,1.8-.9.1-.6-.3-.9-1.5-.9-2.8,0-4.2-1.4-5.6-3.5l-2.1-3.1c-.7-1.1-1.7-2-2.9-2.7,6.7-1.4,11.8-6,12.8-13.2,1.3-9.2-4.8-13.8-15.1-13.8h-19.5c-.6,0-1,.3-1.1.8-.1.6.3.8.9.8h4.7l-4.9,34.7h-4.7c-.6,0-1,.3-1.1.8s.3.8.9.8h21.9c.6,0,1-.3,1.1-.8.1-.6-.3-.8-.9-.8h-4.7l4.9-34.7h2.2c9.3,0,14.5,3.7,13.3,12.1-1.1,8.2-7.2,12.2-15.1,12.2Z"/>
    <path class="st0" d="M548.59,341.7c-.6,0-1,.3-1.1.8s.3.8.9.8l23.8.1c8.5,0,13-4,14-10.6.7-5.1-2.2-8.5-7.2-9.1,4.7-1.3,8-5.1,8.5-8.9.8-5.8-2.2-9.3-11.6-9.3h-22.1c-.6,0-1,.3-1.1.8s.3.8.9.8h4.7l-4.9,34.7-4.8-.1ZM570.69,307h4.9c8.6,0,10.4,3,9.8,7.7-.7,4.7-5.9,8.4-9.8,8.4h-3.2c-.6,0-1.2.3-1.3.9-.1.7.4,1,.9,1h4.4c4.3,0,8.5,1.9,7.7,7.7-.8,5.5-4,9.1-11.7,9h-6.6l4.9-34.7Z"/>
    <path class="st0" d="M618.29,307.1c.6,0,1-.3,1.1-.8s-.3-.8-.9-.8h-22.2c-.6,0-1,.3-1.1.8s.3.8.9.8h4.9l-4.9,34.7h-4.9c-.6,0-1,.3-1.1.8s.3.8.9.8h22.2c.6,0,1-.3,1.1-.8s-.3-.8-.9-.8h-4.9l4.9-34.7h4.9Z"/>
    <path class="st0" d="M655.79,315c.6,0,1.1-.5,1.1-1.1l1.1-7.4c.1-.6-.2-1-.8-1l-32.5-.1c-.6,0-1,.3-1.1.8s.3.8.9.8h4.7l-4.9,34.7h-4.7c-.6,0-1,.3-1.1.8s.3.8.9.8l32.8.1c.7,0,1-.4,1.1-1l1.1-8c.1-.6-.2-1.1-.8-1.1s-1.1.5-1.1,1.1l-1,7.3h-14.6l1.9-13.1h10c.5,0,.9-.3,1-.9.1-.6-.2-.9-.8-.9h-10l2.8-20h14.3l-1,6.8c-.3.9,0,1.4.7,1.4Z"/>
    <path class="st0" d="M682.09,331.5c-.6,0-1.1.2-1.2.9-.1.7.4.9.9.9,2.8,0,4.4,1.3,5.8,3.3l2.2,3.3c1.7,2.6,3.6,3.8,7.1,3.8,1.2,0,1.7-.3,1.8-.9.1-.6-.3-.9-1.5-.9-2.8,0-4.2-1.4-5.6-3.5l-2.1-3.1c-.7-1.1-1.7-2-2.9-2.7,6.7-1.4,11.8-6,12.8-13.2,1.3-9.2-4.8-13.8-15.1-13.8h-19.5c-.6,0-1,.3-1.1.8-.1.6.3.8.9.8h4.7l-4.9,34.7h-4.7c-.6,0-1,.3-1.1.8s.3.8.9.8h21.9c.6,0,1-.3,1.1-.8.1-.6-.3-.8-.9-.8h-4.7l4.9-34.7h2.2c9.3,0,14.5,3.7,13.3,12.1-1.2,8.2-7.3,12.2-15.2,12.2Z"/>
  </g>
  <path d="M208.39,272.2s4.4-2.1,8.1-2.6c0,0,66.7,13.7,94.7,15.8s93,4,93,4l-7.7,4.2s-59.4-3.2-73.8-4.2c-14.4-1-97.2-14.5-97.2-14.5l-17.1-2.7Z"/>
  <path d="M153.09,293.8l-2,.8s.2,8.5,97.4,20.6c97.3,12.1,116.4,8.7,116.4,8.7,0,0-6.1,4.1-4.8,7,1.3,2.9,1.1,9.2,11.3,9.6s6.6-6,6.6-6.8-1.1-2.3,7.8-10.7l1.7-4.2-4.5,1.7-3.6,4.3-3.4,4.9-.8,3.6-.4,3.4-3.3,1.5-6.4-3.6-1.5-4.9,5.1-5.9,2.2-2.6h-20.8l-22.8-.8s-76-7.4-86.4-8.8c-10.5-1.5-67.9-11-77-13.8-9.2-3.1-10.8-4-10.8-4Z"/>
  <path d="M418.79,304s.1,5.1-1.8,7.6-3.6,4.1-10,5.5-22.2,4.4-22.2,4.4l1.5-3.3,17.9-2.4s7.4-1.4,8.8-3,3.8-3.4,2.9-6.1c-.9-2.7.7-5.7.7-5.7l2.2,3Z"/>
  <polygon points="418.79 304 571.79 194.2 567.49 194.2 481.19 255.7 415.69 301.3 416.99 303.8 418.79 304"/>
  <path d="M558.69,154.3s2.7-2.2,3.1-2.3c.4-.1,2.6-2.8,14.2,10.3l-2.5,3.1c0,.1-12.7-11.2-14.8-11.1Z"/>
</svg>